<?xml version="1.0" encoding="utf-8"?>
<svg xmlns="http://www.w3.org/2000/svg" xmlns:xlink="http://www.w3.org/1999/xlink" width="600" height="400" viewBox="0 0 2400 1600">
<defs>
  <clipPath id="clip340">
    <rect x="0" y="0" width="2400" height="1600"/>
  </clipPath>
</defs>
<path clip-path="url(#clip340)" d="M0 1600 L2400 1600 L2400 0 L0 0  Z" fill="#ffffff" fill-rule="evenodd" fill-opacity="1"/>
<defs>
  <clipPath id="clip341">
    <rect x="480" y="0" width="1681" height="1600"/>
  </clipPath>
</defs>
<path clip-path="url(#clip340)" d="M257.955 1486.45 L2352.76 1486.45 L2352.76 47.2441 L257.955 47.2441  Z" fill="#ffffff" fill-rule="evenodd" fill-opacity="1"/>
<defs>
  <clipPath id="clip342">
    <rect x="257" y="47" width="2096" height="1440"/>
  </clipPath>
</defs>
<polyline clip-path="url(#clip342)" style="stroke:#000000; stroke-linecap:round; stroke-linejoin:round; stroke-width:2; stroke-opacity:0.1; fill:none" points="266.569,1486.45 266.569,47.2441 "/>
<polyline clip-path="url(#clip342)" style="stroke:#000000; stroke-linecap:round; stroke-linejoin:round; stroke-width:2; stroke-opacity:0.1; fill:none" points="773.294,1486.45 773.294,47.2441 "/>
<polyline clip-path="url(#clip342)" style="stroke:#000000; stroke-linecap:round; stroke-linejoin:round; stroke-width:2; stroke-opacity:0.1; fill:none" points="1280.02,1486.45 1280.02,47.2441 "/>
<polyline clip-path="url(#clip342)" style="stroke:#000000; stroke-linecap:round; stroke-linejoin:round; stroke-width:2; stroke-opacity:0.1; fill:none" points="1786.74,1486.45 1786.74,47.2441 "/>
<polyline clip-path="url(#clip342)" style="stroke:#000000; stroke-linecap:round; stroke-linejoin:round; stroke-width:2; stroke-opacity:0.1; fill:none" points="2293.47,1486.45 2293.47,47.2441 "/>
<polyline clip-path="url(#clip342)" style="stroke:#000000; stroke-linecap:round; stroke-linejoin:round; stroke-width:2; stroke-opacity:0.1; fill:none" points="257.955,1028.26 2352.76,1028.26 "/>
<polyline clip-path="url(#clip342)" style="stroke:#000000; stroke-linecap:round; stroke-linejoin:round; stroke-width:2; stroke-opacity:0.1; fill:none" points="257.955,537.189 2352.76,537.189 "/>
<polyline clip-path="url(#clip340)" style="stroke:#000000; stroke-linecap:round; stroke-linejoin:round; stroke-width:4; stroke-opacity:1; fill:none" points="257.955,1486.45 2352.76,1486.45 "/>
<polyline clip-path="url(#clip340)" style="stroke:#000000; stroke-linecap:round; stroke-linejoin:round; stroke-width:4; stroke-opacity:1; fill:none" points="266.569,1486.45 266.569,1467.55 "/>
<polyline clip-path="url(#clip340)" style="stroke:#000000; stroke-linecap:round; stroke-linejoin:round; stroke-width:4; stroke-opacity:1; fill:none" points="773.294,1486.45 773.294,1467.55 "/>
<polyline clip-path="url(#clip340)" style="stroke:#000000; stroke-linecap:round; stroke-linejoin:round; stroke-width:4; stroke-opacity:1; fill:none" points="1280.02,1486.45 1280.02,1467.55 "/>
<polyline clip-path="url(#clip340)" style="stroke:#000000; stroke-linecap:round; stroke-linejoin:round; stroke-width:4; stroke-opacity:1; fill:none" points="1786.74,1486.45 1786.74,1467.55 "/>
<polyline clip-path="url(#clip340)" style="stroke:#000000; stroke-linecap:round; stroke-linejoin:round; stroke-width:4; stroke-opacity:1; fill:none" points="2293.47,1486.45 2293.47,1467.55 "/>
<path clip-path="url(#clip340)" d="M266.569 1517.37 Q262.958 1517.37 261.129 1520.93 Q259.324 1524.47 259.324 1531.6 Q259.324 1538.71 261.129 1542.27 Q262.958 1545.82 266.569 1545.82 Q270.203 1545.82 272.009 1542.27 Q273.838 1538.71 273.838 1531.6 Q273.838 1524.47 272.009 1520.93 Q270.203 1517.37 266.569 1517.37 M266.569 1513.66 Q272.379 1513.66 275.435 1518.27 Q278.514 1522.85 278.514 1531.6 Q278.514 1540.33 275.435 1544.94 Q272.379 1549.52 266.569 1549.52 Q260.759 1549.52 257.68 1544.94 Q254.625 1540.33 254.625 1531.6 Q254.625 1522.85 257.68 1518.27 Q260.759 1513.66 266.569 1513.66 Z" fill="#000000" fill-rule="nonzero" fill-opacity="1" /><path clip-path="url(#clip340)" d="M747.982 1544.91 L755.621 1544.91 L755.621 1518.55 L747.311 1520.21 L747.311 1515.95 L755.574 1514.29 L760.25 1514.29 L760.25 1544.91 L767.889 1544.91 L767.889 1548.85 L747.982 1548.85 L747.982 1544.91 Z" fill="#000000" fill-rule="nonzero" fill-opacity="1" /><path clip-path="url(#clip340)" d="M787.333 1517.37 Q783.722 1517.37 781.894 1520.93 Q780.088 1524.47 780.088 1531.6 Q780.088 1538.71 781.894 1542.27 Q783.722 1545.82 787.333 1545.82 Q790.968 1545.82 792.773 1542.27 Q794.602 1538.71 794.602 1531.6 Q794.602 1524.47 792.773 1520.93 Q790.968 1517.37 787.333 1517.37 M787.333 1513.66 Q793.144 1513.66 796.199 1518.27 Q799.278 1522.85 799.278 1531.6 Q799.278 1540.33 796.199 1544.94 Q793.144 1549.52 787.333 1549.52 Q781.523 1549.52 778.445 1544.94 Q775.389 1540.33 775.389 1531.6 Q775.389 1522.85 778.445 1518.27 Q781.523 1513.66 787.333 1513.66 Z" fill="#000000" fill-rule="nonzero" fill-opacity="1" /><path clip-path="url(#clip340)" d="M1258.79 1544.91 L1275.11 1544.91 L1275.11 1548.85 L1253.17 1548.85 L1253.17 1544.91 Q1255.83 1542.16 1260.41 1537.53 Q1265.02 1532.88 1266.2 1531.53 Q1268.45 1529.01 1269.32 1527.27 Q1270.23 1525.51 1270.23 1523.82 Q1270.23 1521.07 1268.28 1519.33 Q1266.36 1517.6 1263.26 1517.6 Q1261.06 1517.6 1258.61 1518.36 Q1256.18 1519.13 1253.4 1520.68 L1253.4 1515.95 Q1256.22 1514.82 1258.68 1514.24 Q1261.13 1513.66 1263.17 1513.66 Q1268.54 1513.66 1271.73 1516.35 Q1274.93 1519.03 1274.93 1523.52 Q1274.93 1525.65 1274.12 1527.57 Q1273.33 1529.47 1271.22 1532.07 Q1270.64 1532.74 1267.54 1535.95 Q1264.44 1539.15 1258.79 1544.91 Z" fill="#000000" fill-rule="nonzero" fill-opacity="1" /><path clip-path="url(#clip340)" d="M1294.93 1517.37 Q1291.32 1517.37 1289.49 1520.93 Q1287.68 1524.47 1287.68 1531.6 Q1287.68 1538.71 1289.49 1542.27 Q1291.32 1545.82 1294.93 1545.82 Q1298.56 1545.82 1300.37 1542.27 Q1302.19 1538.71 1302.19 1531.6 Q1302.19 1524.47 1300.37 1520.93 Q1298.56 1517.37 1294.93 1517.37 M1294.93 1513.66 Q1300.74 1513.66 1303.79 1518.27 Q1306.87 1522.85 1306.87 1531.6 Q1306.87 1540.33 1303.79 1544.94 Q1300.74 1549.52 1294.93 1549.52 Q1289.12 1549.52 1286.04 1544.94 Q1282.98 1540.33 1282.98 1531.6 Q1282.98 1522.85 1286.04 1518.27 Q1289.12 1513.66 1294.93 1513.66 Z" fill="#000000" fill-rule="nonzero" fill-opacity="1" /><path clip-path="url(#clip340)" d="M1775.59 1530.21 Q1778.94 1530.93 1780.82 1533.2 Q1782.72 1535.47 1782.72 1538.8 Q1782.72 1543.92 1779.2 1546.72 Q1775.68 1549.52 1769.2 1549.52 Q1767.02 1549.52 1764.71 1549.08 Q1762.42 1548.66 1759.96 1547.81 L1759.96 1543.29 Q1761.91 1544.43 1764.22 1545.01 Q1766.54 1545.58 1769.06 1545.58 Q1773.46 1545.58 1775.75 1543.85 Q1778.06 1542.11 1778.06 1538.8 Q1778.06 1535.75 1775.91 1534.03 Q1773.78 1532.3 1769.96 1532.3 L1765.93 1532.3 L1765.93 1528.45 L1770.15 1528.45 Q1773.6 1528.45 1775.42 1527.09 Q1777.25 1525.7 1777.25 1523.11 Q1777.25 1520.45 1775.36 1519.03 Q1773.48 1517.6 1769.96 1517.6 Q1768.04 1517.6 1765.84 1518.01 Q1763.64 1518.43 1761 1519.31 L1761 1515.14 Q1763.67 1514.4 1765.98 1514.03 Q1768.32 1513.66 1770.38 1513.66 Q1775.7 1513.66 1778.8 1516.09 Q1781.91 1518.5 1781.91 1522.62 Q1781.91 1525.49 1780.26 1527.48 Q1778.62 1529.45 1775.59 1530.21 Z" fill="#000000" fill-rule="nonzero" fill-opacity="1" /><path clip-path="url(#clip340)" d="M1801.58 1517.37 Q1797.97 1517.37 1796.14 1520.93 Q1794.34 1524.47 1794.34 1531.6 Q1794.34 1538.71 1796.14 1542.27 Q1797.97 1545.82 1801.58 1545.82 Q1805.22 1545.82 1807.02 1542.27 Q1808.85 1538.71 1808.85 1531.6 Q1808.85 1524.47 1807.02 1520.93 Q1805.22 1517.37 1801.58 1517.37 M1801.58 1513.66 Q1807.39 1513.66 1810.45 1518.27 Q1813.53 1522.85 1813.53 1531.6 Q1813.53 1540.33 1810.45 1544.94 Q1807.39 1549.52 1801.58 1549.52 Q1795.77 1549.52 1792.69 1544.94 Q1789.64 1540.33 1789.64 1531.6 Q1789.64 1522.85 1792.69 1518.27 Q1795.77 1513.66 1801.58 1513.66 Z" fill="#000000" fill-rule="nonzero" fill-opacity="1" /><path clip-path="url(#clip340)" d="M2281.64 1518.36 L2269.83 1536.81 L2281.64 1536.81 L2281.64 1518.36 M2280.41 1514.29 L2286.29 1514.29 L2286.29 1536.81 L2291.22 1536.81 L2291.22 1540.7 L2286.29 1540.7 L2286.29 1548.85 L2281.64 1548.85 L2281.64 1540.7 L2266.04 1540.7 L2266.04 1536.19 L2280.41 1514.29 Z" fill="#000000" fill-rule="nonzero" fill-opacity="1" /><path clip-path="url(#clip340)" d="M2308.96 1517.37 Q2305.34 1517.37 2303.52 1520.93 Q2301.71 1524.47 2301.71 1531.6 Q2301.71 1538.71 2303.52 1542.27 Q2305.34 1545.82 2308.96 1545.82 Q2312.59 1545.82 2314.39 1542.27 Q2316.22 1538.71 2316.22 1531.6 Q2316.22 1524.47 2314.39 1520.93 Q2312.59 1517.37 2308.96 1517.37 M2308.96 1513.66 Q2314.77 1513.66 2317.82 1518.27 Q2320.9 1522.85 2320.9 1531.6 Q2320.9 1540.33 2317.82 1544.94 Q2314.77 1549.52 2308.96 1549.52 Q2303.14 1549.52 2300.07 1544.94 Q2297.01 1540.33 2297.01 1531.6 Q2297.01 1522.85 2300.07 1518.27 Q2303.14 1513.66 2308.96 1513.66 Z" fill="#000000" fill-rule="nonzero" fill-opacity="1" /><polyline clip-path="url(#clip340)" style="stroke:#000000; stroke-linecap:round; stroke-linejoin:round; stroke-width:4; stroke-opacity:1; fill:none" points="257.955,1486.45 257.955,47.2441 "/>
<polyline clip-path="url(#clip340)" style="stroke:#000000; stroke-linecap:round; stroke-linejoin:round; stroke-width:4; stroke-opacity:1; fill:none" points="257.955,1028.26 276.853,1028.26 "/>
<polyline clip-path="url(#clip340)" style="stroke:#000000; stroke-linecap:round; stroke-linejoin:round; stroke-width:4; stroke-opacity:1; fill:none" points="257.955,537.189 276.853,537.189 "/>
<path clip-path="url(#clip340)" d="M115.59 1048.05 L123.229 1048.05 L123.229 1021.69 L114.918 1023.35 L114.918 1019.09 L123.182 1017.43 L127.858 1017.43 L127.858 1048.05 L135.497 1048.05 L135.497 1051.99 L115.59 1051.99 L115.59 1048.05 Z" fill="#000000" fill-rule="nonzero" fill-opacity="1" /><path clip-path="url(#clip340)" d="M154.941 1020.5 Q151.33 1020.5 149.502 1024.07 Q147.696 1027.61 147.696 1034.74 Q147.696 1041.85 149.502 1045.41 Q151.33 1048.95 154.941 1048.95 Q158.576 1048.95 160.381 1045.41 Q162.21 1041.85 162.21 1034.74 Q162.21 1027.61 160.381 1024.07 Q158.576 1020.5 154.941 1020.5 M154.941 1016.8 Q160.752 1016.8 163.807 1021.41 Q166.886 1025.99 166.886 1034.74 Q166.886 1043.47 163.807 1048.07 Q160.752 1052.66 154.941 1052.66 Q149.131 1052.66 146.053 1048.07 Q142.997 1043.47 142.997 1034.74 Q142.997 1025.99 146.053 1021.41 Q149.131 1016.8 154.941 1016.8 Z" fill="#000000" fill-rule="nonzero" fill-opacity="1" /><path clip-path="url(#clip340)" d="M171.456 1021.38 L184.716 1021.38 L184.716 1024.58 L166.886 1024.58 L166.886 1021.38 Q169.049 1019.14 172.773 1015.38 Q176.515 1011.6 177.475 1010.51 Q179.299 1008.46 180.014 1007.05 Q180.747 1005.62 180.747 1004.24 Q180.747 1002.01 179.167 1000.6 Q177.606 999.185 175.086 999.185 Q173.299 999.185 171.306 999.806 Q169.331 1000.43 167.074 1001.69 L167.074 997.85 Q169.368 996.928 171.362 996.458 Q173.356 995.988 175.011 995.988 Q179.374 995.988 181.97 998.169 Q184.565 1000.35 184.565 1004 Q184.565 1005.73 183.907 1007.29 Q183.267 1008.83 181.556 1010.94 Q181.086 1011.49 178.565 1014.1 Q176.045 1016.7 171.456 1021.38 Z" fill="#000000" fill-rule="nonzero" fill-opacity="1" /><path clip-path="url(#clip340)" d="M192.69 1019.8 L196.658 1019.8 L196.658 1024.58 L192.69 1024.58 L192.69 1019.8 Z" fill="#000000" fill-rule="nonzero" fill-opacity="1" /><path clip-path="url(#clip340)" d="M204.971 996.496 L219.886 996.496 L219.886 999.693 L208.451 999.693 L208.451 1006.58 Q209.278 1006.29 210.106 1006.16 Q210.934 1006.01 211.761 1006.01 Q216.463 1006.01 219.209 1008.59 Q221.955 1011.17 221.955 1015.57 Q221.955 1020.1 219.134 1022.62 Q216.313 1025.12 211.178 1025.12 Q209.41 1025.12 207.567 1024.82 Q205.743 1024.52 203.787 1023.92 L203.787 1020.1 Q205.479 1021.02 207.285 1021.47 Q209.09 1021.92 211.103 1021.92 Q214.357 1021.92 216.256 1020.21 Q218.156 1018.5 218.156 1015.57 Q218.156 1012.63 216.256 1010.92 Q214.357 1009.21 211.103 1009.21 Q209.579 1009.21 208.056 1009.55 Q206.551 1009.89 204.971 1010.6 L204.971 996.496 Z" fill="#000000" fill-rule="nonzero" fill-opacity="1" /><path clip-path="url(#clip340)" d="M114.931 556.981 L122.57 556.981 L122.57 530.615 L114.26 532.282 L114.26 528.023 L122.524 526.356 L127.2 526.356 L127.2 556.981 L134.839 556.981 L134.839 560.916 L114.931 560.916 L114.931 556.981 Z" fill="#000000" fill-rule="nonzero" fill-opacity="1" /><path clip-path="url(#clip340)" d="M154.283 529.435 Q150.672 529.435 148.843 533 Q147.038 536.541 147.038 543.671 Q147.038 550.777 148.843 554.342 Q150.672 557.884 154.283 557.884 Q157.917 557.884 159.723 554.342 Q161.552 550.777 161.552 543.671 Q161.552 536.541 159.723 533 Q157.917 529.435 154.283 529.435 M154.283 525.731 Q160.093 525.731 163.149 530.338 Q166.227 534.921 166.227 543.671 Q166.227 552.398 163.149 557.004 Q160.093 561.587 154.283 561.587 Q148.473 561.587 145.394 557.004 Q142.339 552.398 142.339 543.671 Q142.339 534.921 145.394 530.338 Q148.473 525.731 154.283 525.731 Z" fill="#000000" fill-rule="nonzero" fill-opacity="1" /><path clip-path="url(#clip340)" d="M167.412 505.426 L182.327 505.426 L182.327 508.623 L170.892 508.623 L170.892 515.507 Q171.719 515.225 172.547 515.093 Q173.374 514.943 174.202 514.943 Q178.904 514.943 181.65 517.519 Q184.396 520.096 184.396 524.497 Q184.396 529.03 181.575 531.55 Q178.753 534.051 173.619 534.051 Q171.851 534.051 170.008 533.75 Q168.183 533.449 166.227 532.848 L166.227 529.03 Q167.92 529.951 169.726 530.402 Q171.531 530.854 173.544 530.854 Q176.797 530.854 178.697 529.142 Q180.597 527.431 180.597 524.497 Q180.597 521.563 178.697 519.851 Q176.797 518.14 173.544 518.14 Q172.02 518.14 170.497 518.478 Q168.992 518.817 167.412 519.532 L167.412 505.426 Z" fill="#000000" fill-rule="nonzero" fill-opacity="1" /><path clip-path="url(#clip340)" d="M191.881 528.729 L195.85 528.729 L195.85 533.506 L191.881 533.506 L191.881 528.729 Z" fill="#000000" fill-rule="nonzero" fill-opacity="1" /><path clip-path="url(#clip340)" d="M212.25 507.927 Q209.316 507.927 207.83 510.824 Q206.363 513.701 206.363 519.494 Q206.363 525.268 207.83 528.164 Q209.316 531.042 212.25 531.042 Q215.203 531.042 216.67 528.164 Q218.156 525.268 218.156 519.494 Q218.156 513.701 216.67 510.824 Q215.203 507.927 212.25 507.927 M212.25 504.918 Q216.971 504.918 219.453 508.661 Q221.955 512.385 221.955 519.494 Q221.955 526.585 219.453 530.327 Q216.971 534.051 212.25 534.051 Q207.529 534.051 205.028 530.327 Q202.545 526.585 202.545 519.494 Q202.545 512.385 205.028 508.661 Q207.529 504.918 212.25 504.918 Z" fill="#000000" fill-rule="nonzero" fill-opacity="1" /><path clip-path="url(#clip340)" d="M14.1925 811.438 L79.3773 811.438 L79.3773 816.849 L14.1925 816.849 L14.1925 811.438 Z" fill="#000000" fill-rule="nonzero" fill-opacity="1" /><path clip-path="url(#clip340)" d="M16.4842 796.765 L16.4842 790.335 L58.5933 790.335 L58.5933 767.196 L64.0042 767.196 L64.0042 796.765 L16.4842 796.765 Z" fill="#000000" fill-rule="nonzero" fill-opacity="1" /><path clip-path="url(#clip340)" d="M16.4842 760.448 L16.4842 754.019 L58.5933 754.019 L58.5933 730.88 L64.0042 730.88 L64.0042 760.448 L16.4842 760.448 Z" fill="#000000" fill-rule="nonzero" fill-opacity="1" /><path clip-path="url(#clip340)" d="M14.1925 716.843 L79.3773 716.843 L79.3773 722.254 L14.1925 722.254 L14.1925 716.843 Z" fill="#000000" fill-rule="nonzero" fill-opacity="1" /><polyline clip-path="url(#clip342)" style="stroke:#009af9; stroke-linecap:round; stroke-linejoin:round; stroke-width:4; stroke-opacity:1; fill:none" points="317.242,1442.38 367.914,1444.36 418.587,1444.69 469.259,1444.83 519.932,1444.92 570.604,1444.99 621.277,1445.04 671.949,1445.08 722.622,1445.12 773.294,1445.15 823.967,1445.18 874.639,1445.2 925.312,1445.23 975.984,1445.25 1026.66,1445.27 1077.33,1445.29 1128,1445.31 1178.67,1445.33 1229.35,1445.35 1280.02,1445.37 1330.69,1445.39 1381.36,1445.42 1432.04,1445.44 1482.71,1445.46 1533.38,1445.48 1584.05,1445.51 1634.73,1445.53 1685.4,1445.55 1736.07,1445.57 1786.74,1445.59 1837.42,1445.61 1888.09,1445.63 1938.76,1445.64 1989.43,1445.66 2040.11,1445.67 2090.78,1445.68 2141.45,1445.69 2192.12,1445.7 2242.8,1445.71 2293.47,1445.72 "/>
<circle clip-path="url(#clip342)" cx="317.242" cy="1442.38" r="14.4" fill="#009af9" fill-rule="evenodd" fill-opacity="1" stroke="#000000" stroke-opacity="1" stroke-width="3.2"/>
<circle clip-path="url(#clip342)" cx="367.914" cy="1444.36" r="14.4" fill="#009af9" fill-rule="evenodd" fill-opacity="1" stroke="#000000" stroke-opacity="1" stroke-width="3.2"/>
<circle clip-path="url(#clip342)" cx="418.587" cy="1444.69" r="14.4" fill="#009af9" fill-rule="evenodd" fill-opacity="1" stroke="#000000" stroke-opacity="1" stroke-width="3.2"/>
<circle clip-path="url(#clip342)" cx="469.259" cy="1444.83" r="14.4" fill="#009af9" fill-rule="evenodd" fill-opacity="1" stroke="#000000" stroke-opacity="1" stroke-width="3.2"/>
<circle clip-path="url(#clip342)" cx="519.932" cy="1444.92" r="14.4" fill="#009af9" fill-rule="evenodd" fill-opacity="1" stroke="#000000" stroke-opacity="1" stroke-width="3.2"/>
<circle clip-path="url(#clip342)" cx="570.604" cy="1444.99" r="14.4" fill="#009af9" fill-rule="evenodd" fill-opacity="1" stroke="#000000" stroke-opacity="1" stroke-width="3.2"/>
<circle clip-path="url(#clip342)" cx="621.277" cy="1445.04" r="14.4" fill="#009af9" fill-rule="evenodd" fill-opacity="1" stroke="#000000" stroke-opacity="1" stroke-width="3.2"/>
<circle clip-path="url(#clip342)" cx="671.949" cy="1445.08" r="14.4" fill="#009af9" fill-rule="evenodd" fill-opacity="1" stroke="#000000" stroke-opacity="1" stroke-width="3.2"/>
<circle clip-path="url(#clip342)" cx="722.622" cy="1445.12" r="14.4" fill="#009af9" fill-rule="evenodd" fill-opacity="1" stroke="#000000" stroke-opacity="1" stroke-width="3.2"/>
<circle clip-path="url(#clip342)" cx="773.294" cy="1445.15" r="14.4" fill="#009af9" fill-rule="evenodd" fill-opacity="1" stroke="#000000" stroke-opacity="1" stroke-width="3.2"/>
<circle clip-path="url(#clip342)" cx="823.967" cy="1445.18" r="14.4" fill="#009af9" fill-rule="evenodd" fill-opacity="1" stroke="#000000" stroke-opacity="1" stroke-width="3.2"/>
<circle clip-path="url(#clip342)" cx="874.639" cy="1445.2" r="14.4" fill="#009af9" fill-rule="evenodd" fill-opacity="1" stroke="#000000" stroke-opacity="1" stroke-width="3.2"/>
<circle clip-path="url(#clip342)" cx="925.312" cy="1445.23" r="14.4" fill="#009af9" fill-rule="evenodd" fill-opacity="1" stroke="#000000" stroke-opacity="1" stroke-width="3.2"/>
<circle clip-path="url(#clip342)" cx="975.984" cy="1445.25" r="14.4" fill="#009af9" fill-rule="evenodd" fill-opacity="1" stroke="#000000" stroke-opacity="1" stroke-width="3.2"/>
<circle clip-path="url(#clip342)" cx="1026.66" cy="1445.27" r="14.4" fill="#009af9" fill-rule="evenodd" fill-opacity="1" stroke="#000000" stroke-opacity="1" stroke-width="3.2"/>
<circle clip-path="url(#clip342)" cx="1077.33" cy="1445.29" r="14.4" fill="#009af9" fill-rule="evenodd" fill-opacity="1" stroke="#000000" stroke-opacity="1" stroke-width="3.2"/>
<circle clip-path="url(#clip342)" cx="1128" cy="1445.31" r="14.4" fill="#009af9" fill-rule="evenodd" fill-opacity="1" stroke="#000000" stroke-opacity="1" stroke-width="3.2"/>
<circle clip-path="url(#clip342)" cx="1178.67" cy="1445.33" r="14.4" fill="#009af9" fill-rule="evenodd" fill-opacity="1" stroke="#000000" stroke-opacity="1" stroke-width="3.2"/>
<circle clip-path="url(#clip342)" cx="1229.35" cy="1445.35" r="14.4" fill="#009af9" fill-rule="evenodd" fill-opacity="1" stroke="#000000" stroke-opacity="1" stroke-width="3.2"/>
<circle clip-path="url(#clip342)" cx="1280.02" cy="1445.37" r="14.4" fill="#009af9" fill-rule="evenodd" fill-opacity="1" stroke="#000000" stroke-opacity="1" stroke-width="3.2"/>
<circle clip-path="url(#clip342)" cx="1330.69" cy="1445.39" r="14.4" fill="#009af9" fill-rule="evenodd" fill-opacity="1" stroke="#000000" stroke-opacity="1" stroke-width="3.2"/>
<circle clip-path="url(#clip342)" cx="1381.36" cy="1445.42" r="14.4" fill="#009af9" fill-rule="evenodd" fill-opacity="1" stroke="#000000" stroke-opacity="1" stroke-width="3.2"/>
<circle clip-path="url(#clip342)" cx="1432.04" cy="1445.44" r="14.4" fill="#009af9" fill-rule="evenodd" fill-opacity="1" stroke="#000000" stroke-opacity="1" stroke-width="3.2"/>
<circle clip-path="url(#clip342)" cx="1482.71" cy="1445.46" r="14.4" fill="#009af9" fill-rule="evenodd" fill-opacity="1" stroke="#000000" stroke-opacity="1" stroke-width="3.2"/>
<circle clip-path="url(#clip342)" cx="1533.38" cy="1445.48" r="14.4" fill="#009af9" fill-rule="evenodd" fill-opacity="1" stroke="#000000" stroke-opacity="1" stroke-width="3.2"/>
<circle clip-path="url(#clip342)" cx="1584.05" cy="1445.51" r="14.4" fill="#009af9" fill-rule="evenodd" fill-opacity="1" stroke="#000000" stroke-opacity="1" stroke-width="3.2"/>
<circle clip-path="url(#clip342)" cx="1634.73" cy="1445.53" r="14.4" fill="#009af9" fill-rule="evenodd" fill-opacity="1" stroke="#000000" stroke-opacity="1" stroke-width="3.2"/>
<circle clip-path="url(#clip342)" cx="1685.4" cy="1445.55" r="14.4" fill="#009af9" fill-rule="evenodd" fill-opacity="1" stroke="#000000" stroke-opacity="1" stroke-width="3.2"/>
<circle clip-path="url(#clip342)" cx="1736.07" cy="1445.57" r="14.4" fill="#009af9" fill-rule="evenodd" fill-opacity="1" stroke="#000000" stroke-opacity="1" stroke-width="3.2"/>
<circle clip-path="url(#clip342)" cx="1786.74" cy="1445.59" r="14.4" fill="#009af9" fill-rule="evenodd" fill-opacity="1" stroke="#000000" stroke-opacity="1" stroke-width="3.2"/>
<circle clip-path="url(#clip342)" cx="1837.42" cy="1445.61" r="14.4" fill="#009af9" fill-rule="evenodd" fill-opacity="1" stroke="#000000" stroke-opacity="1" stroke-width="3.2"/>
<circle clip-path="url(#clip342)" cx="1888.09" cy="1445.63" r="14.4" fill="#009af9" fill-rule="evenodd" fill-opacity="1" stroke="#000000" stroke-opacity="1" stroke-width="3.2"/>
<circle clip-path="url(#clip342)" cx="1938.76" cy="1445.64" r="14.4" fill="#009af9" fill-rule="evenodd" fill-opacity="1" stroke="#000000" stroke-opacity="1" stroke-width="3.2"/>
<circle clip-path="url(#clip342)" cx="1989.43" cy="1445.66" r="14.4" fill="#009af9" fill-rule="evenodd" fill-opacity="1" stroke="#000000" stroke-opacity="1" stroke-width="3.2"/>
<circle clip-path="url(#clip342)" cx="2040.11" cy="1445.67" r="14.4" fill="#009af9" fill-rule="evenodd" fill-opacity="1" stroke="#000000" stroke-opacity="1" stroke-width="3.2"/>
<circle clip-path="url(#clip342)" cx="2090.78" cy="1445.68" r="14.4" fill="#009af9" fill-rule="evenodd" fill-opacity="1" stroke="#000000" stroke-opacity="1" stroke-width="3.2"/>
<circle clip-path="url(#clip342)" cx="2141.45" cy="1445.69" r="14.4" fill="#009af9" fill-rule="evenodd" fill-opacity="1" stroke="#000000" stroke-opacity="1" stroke-width="3.2"/>
<circle clip-path="url(#clip342)" cx="2192.12" cy="1445.7" r="14.4" fill="#009af9" fill-rule="evenodd" fill-opacity="1" stroke="#000000" stroke-opacity="1" stroke-width="3.2"/>
<circle clip-path="url(#clip342)" cx="2242.8" cy="1445.71" r="14.4" fill="#009af9" fill-rule="evenodd" fill-opacity="1" stroke="#000000" stroke-opacity="1" stroke-width="3.2"/>
<circle clip-path="url(#clip342)" cx="2293.47" cy="1445.72" r="14.4" fill="#009af9" fill-rule="evenodd" fill-opacity="1" stroke="#000000" stroke-opacity="1" stroke-width="3.2"/>
<polyline clip-path="url(#clip342)" style="stroke:#e26f46; stroke-linecap:round; stroke-linejoin:round; stroke-width:4; stroke-opacity:1; fill:none" points="317.242,997.925 367.914,1385.49 418.587,470.893 469.259,333.574 519.932,716.831 570.604,1290.71 621.277,1286.9 671.949,87.9763 "/>
<circle clip-path="url(#clip342)" cx="317.242" cy="997.925" r="14.4" fill="#e26f46" fill-rule="evenodd" fill-opacity="1" stroke="#000000" stroke-opacity="1" stroke-width="3.2"/>
<circle clip-path="url(#clip342)" cx="367.914" cy="1385.49" r="14.4" fill="#e26f46" fill-rule="evenodd" fill-opacity="1" stroke="#000000" stroke-opacity="1" stroke-width="3.2"/>
<circle clip-path="url(#clip342)" cx="418.587" cy="470.893" r="14.4" fill="#e26f46" fill-rule="evenodd" fill-opacity="1" stroke="#000000" stroke-opacity="1" stroke-width="3.2"/>
<circle clip-path="url(#clip342)" cx="469.259" cy="333.574" r="14.4" fill="#e26f46" fill-rule="evenodd" fill-opacity="1" stroke="#000000" stroke-opacity="1" stroke-width="3.2"/>
<circle clip-path="url(#clip342)" cx="519.932" cy="716.831" r="14.4" fill="#e26f46" fill-rule="evenodd" fill-opacity="1" stroke="#000000" stroke-opacity="1" stroke-width="3.2"/>
<circle clip-path="url(#clip342)" cx="570.604" cy="1290.71" r="14.4" fill="#e26f46" fill-rule="evenodd" fill-opacity="1" stroke="#000000" stroke-opacity="1" stroke-width="3.2"/>
<circle clip-path="url(#clip342)" cx="621.277" cy="1286.9" r="14.4" fill="#e26f46" fill-rule="evenodd" fill-opacity="1" stroke="#000000" stroke-opacity="1" stroke-width="3.2"/>
<circle clip-path="url(#clip342)" cx="671.949" cy="87.9763" r="14.4" fill="#e26f46" fill-rule="evenodd" fill-opacity="1" stroke="#000000" stroke-opacity="1" stroke-width="3.2"/>
<path clip-path="url(#clip340)" d="M1640.84 250.738 L2282.93 250.738 L2282.93 95.2176 L1640.84 95.2176  Z" fill="#ffffff" fill-rule="evenodd" fill-opacity="1"/>
<polyline clip-path="url(#clip340)" style="stroke:#000000; stroke-linecap:round; stroke-linejoin:round; stroke-width:4; stroke-opacity:1; fill:none" points="1640.84,250.738 2282.93,250.738 2282.93,95.2176 1640.84,95.2176 1640.84,250.738 "/>
<polyline clip-path="url(#clip340)" style="stroke:#009af9; stroke-linecap:round; stroke-linejoin:round; stroke-width:4; stroke-opacity:1; fill:none" points="1664.11,147.058 1803.76,147.058 "/>
<circle clip-path="url(#clip340)" cx="1733.94" cy="147.058" r="19.3963" fill="#009af9" fill-rule="evenodd" fill-opacity="1" stroke="#000000" stroke-opacity="1" stroke-width="4.55111"/>
<path clip-path="url(#clip340)" d="M1842.87 134.384 L1836.53 151.583 L1849.24 151.583 L1842.87 134.384 M1840.23 129.778 L1845.54 129.778 L1858.71 164.338 L1853.85 164.338 L1850.7 155.472 L1835.12 155.472 L1831.97 164.338 L1827.04 164.338 L1840.23 129.778 Z" fill="#000000" fill-rule="nonzero" fill-opacity="1" /><path clip-path="url(#clip340)" d="M1863.75 129.778 L1870.72 129.778 L1879.54 153.296 L1888.41 129.778 L1895.37 129.778 L1895.37 164.338 L1890.81 164.338 L1890.81 133.99 L1881.9 157.694 L1877.2 157.694 L1868.29 133.99 L1868.29 164.338 L1863.75 164.338 L1863.75 129.778 Z" fill="#000000" fill-rule="nonzero" fill-opacity="1" /><path clip-path="url(#clip340)" d="M1904.66 129.778 L1909.33 129.778 L1909.33 164.338 L1904.66 164.338 L1904.66 129.778 Z" fill="#000000" fill-rule="nonzero" fill-opacity="1" /><path clip-path="url(#clip340)" d="M1944.52 132.44 L1944.52 137.37 Q1942.16 135.171 1939.47 134.083 Q1936.81 132.995 1933.8 132.995 Q1927.87 132.995 1924.72 136.629 Q1921.58 140.24 1921.58 147.092 Q1921.58 153.921 1924.72 157.555 Q1927.87 161.166 1933.8 161.166 Q1936.81 161.166 1939.47 160.078 Q1942.16 158.99 1944.52 156.791 L1944.52 161.676 Q1942.06 163.342 1939.31 164.176 Q1936.58 165.009 1933.52 165.009 Q1925.67 165.009 1921.16 160.217 Q1916.65 155.402 1916.65 147.092 Q1916.65 138.759 1921.16 133.967 Q1925.67 129.153 1933.52 129.153 Q1936.62 129.153 1939.35 129.986 Q1942.11 130.796 1944.52 132.44 Z" fill="#000000" fill-rule="nonzero" fill-opacity="1" /><path clip-path="url(#clip340)" d="M1963.29 134.384 L1956.95 151.583 L1969.66 151.583 L1963.29 134.384 M1960.65 129.778 L1965.95 129.778 L1979.12 164.338 L1974.26 164.338 L1971.11 155.472 L1955.53 155.472 L1952.39 164.338 L1947.46 164.338 L1960.65 129.778 Z" fill="#000000" fill-rule="nonzero" fill-opacity="1" /><path clip-path="url(#clip340)" d="M1999.24 129.778 L2019.1 129.778 L2019.1 133.713 L2003.91 133.713 L2003.91 143.898 L2017.62 143.898 L2017.62 147.833 L2003.91 147.833 L2003.91 164.338 L1999.24 164.338 L1999.24 129.778 Z" fill="#000000" fill-rule="nonzero" fill-opacity="1" /><path clip-path="url(#clip340)" d="M2034.68 141.398 Q2031.25 141.398 2029.26 144.083 Q2027.27 146.745 2027.27 151.398 Q2027.27 156.051 2029.24 158.736 Q2031.23 161.398 2034.68 161.398 Q2038.08 161.398 2040.07 158.713 Q2042.06 156.027 2042.06 151.398 Q2042.06 146.791 2040.07 144.106 Q2038.08 141.398 2034.68 141.398 M2034.68 137.787 Q2040.23 137.787 2043.4 141.398 Q2046.58 145.009 2046.58 151.398 Q2046.58 157.764 2043.4 161.398 Q2040.23 165.009 2034.68 165.009 Q2029.1 165.009 2025.93 161.398 Q2022.78 157.764 2022.78 151.398 Q2022.78 145.009 2025.93 141.398 Q2029.1 137.787 2034.68 137.787 Z" fill="#000000" fill-rule="nonzero" fill-opacity="1" /><path clip-path="url(#clip340)" d="M2068.66 142.393 Q2067.94 141.977 2067.09 141.791 Q2066.25 141.583 2065.23 141.583 Q2061.62 141.583 2059.68 143.944 Q2057.76 146.282 2057.76 150.68 L2057.76 164.338 L2053.47 164.338 L2053.47 138.412 L2057.76 138.412 L2057.76 142.44 Q2059.1 140.078 2061.25 138.944 Q2063.4 137.787 2066.48 137.787 Q2066.92 137.787 2067.46 137.856 Q2067.99 137.903 2068.64 138.018 L2068.66 142.393 Z" fill="#000000" fill-rule="nonzero" fill-opacity="1" /><path clip-path="url(#clip340)" d="M2077.34 131.051 L2077.34 138.412 L2086.11 138.412 L2086.11 141.722 L2077.34 141.722 L2077.34 155.796 Q2077.34 158.967 2078.2 159.87 Q2079.08 160.773 2081.74 160.773 L2086.11 160.773 L2086.11 164.338 L2081.74 164.338 Q2076.81 164.338 2074.93 162.509 Q2073.06 160.657 2073.06 155.796 L2073.06 141.722 L2069.93 141.722 L2069.93 138.412 L2073.06 138.412 L2073.06 131.051 L2077.34 131.051 Z" fill="#000000" fill-rule="nonzero" fill-opacity="1" /><path clip-path="url(#clip340)" d="M2106.74 142.393 Q2106.02 141.977 2105.16 141.791 Q2104.33 141.583 2103.31 141.583 Q2099.7 141.583 2097.76 143.944 Q2095.84 146.282 2095.84 150.68 L2095.84 164.338 L2091.55 164.338 L2091.55 138.412 L2095.84 138.412 L2095.84 142.44 Q2097.18 140.078 2099.33 138.944 Q2101.48 137.787 2104.56 137.787 Q2105 137.787 2105.53 137.856 Q2106.07 137.903 2106.71 138.018 L2106.74 142.393 Z" fill="#000000" fill-rule="nonzero" fill-opacity="1" /><path clip-path="url(#clip340)" d="M2122.99 151.305 Q2117.83 151.305 2115.83 152.486 Q2113.84 153.666 2113.84 156.514 Q2113.84 158.782 2115.33 160.125 Q2116.83 161.444 2119.4 161.444 Q2122.94 161.444 2125.07 158.944 Q2127.22 156.421 2127.22 152.254 L2127.22 151.305 L2122.99 151.305 M2131.48 149.546 L2131.48 164.338 L2127.22 164.338 L2127.22 160.402 Q2125.77 162.763 2123.59 163.898 Q2121.41 165.009 2118.27 165.009 Q2114.28 165.009 2111.92 162.787 Q2109.58 160.541 2109.58 156.791 Q2109.58 152.416 2112.5 150.194 Q2115.44 147.972 2121.25 147.972 L2127.22 147.972 L2127.22 147.555 Q2127.22 144.615 2125.28 143.018 Q2123.36 141.398 2119.86 141.398 Q2117.64 141.398 2115.53 141.93 Q2113.43 142.463 2111.48 143.527 L2111.48 139.592 Q2113.82 138.69 2116.02 138.25 Q2118.22 137.787 2120.3 137.787 Q2125.93 137.787 2128.71 140.703 Q2131.48 143.62 2131.48 149.546 Z" fill="#000000" fill-rule="nonzero" fill-opacity="1" /><path clip-path="url(#clip340)" d="M2161.81 148.689 L2161.81 164.338 L2157.55 164.338 L2157.55 148.828 Q2157.55 145.148 2156.11 143.319 Q2154.68 141.49 2151.81 141.49 Q2148.36 141.49 2146.37 143.69 Q2144.38 145.889 2144.38 149.685 L2144.38 164.338 L2140.09 164.338 L2140.09 138.412 L2144.38 138.412 L2144.38 142.44 Q2145.9 140.102 2147.96 138.944 Q2150.05 137.787 2152.76 137.787 Q2157.22 137.787 2159.52 140.565 Q2161.81 143.319 2161.81 148.689 Z" fill="#000000" fill-rule="nonzero" fill-opacity="1" /><path clip-path="url(#clip340)" d="M2190.86 128.111 L2190.86 175.518 L2186.92 175.518 L2186.92 128.111 L2190.86 128.111 Z" fill="#000000" fill-rule="nonzero" fill-opacity="1" /><path clip-path="url(#clip340)" d="M2201.53 129.778 L2206.2 129.778 L2206.2 160.402 L2223.03 160.402 L2223.03 164.338 L2201.53 164.338 L2201.53 129.778 Z" fill="#000000" fill-rule="nonzero" fill-opacity="1" /><path clip-path="url(#clip340)" d="M2227.94 129.778 L2232.62 129.778 L2232.62 160.402 L2249.45 160.402 L2249.45 164.338 L2227.94 164.338 L2227.94 129.778 Z" fill="#000000" fill-rule="nonzero" fill-opacity="1" /><path clip-path="url(#clip340)" d="M2259.65 128.111 L2259.65 175.518 L2255.72 175.518 L2255.72 128.111 L2259.65 128.111 Z" fill="#000000" fill-rule="nonzero" fill-opacity="1" /><polyline clip-path="url(#clip340)" style="stroke:#e26f46; stroke-linecap:round; stroke-linejoin:round; stroke-width:4; stroke-opacity:1; fill:none" points="1664.11,198.898 1803.76,198.898 "/>
<circle clip-path="url(#clip340)" cx="1733.94" cy="198.898" r="19.3963" fill="#e26f46" fill-rule="evenodd" fill-opacity="1" stroke="#000000" stroke-opacity="1" stroke-width="4.55111"/>
<path clip-path="url(#clip340)" d="M1842.87 186.224 L1836.53 203.423 L1849.24 203.423 L1842.87 186.224 M1840.23 181.618 L1845.54 181.618 L1858.71 216.178 L1853.85 216.178 L1850.7 207.312 L1835.12 207.312 L1831.97 216.178 L1827.04 216.178 L1840.23 181.618 Z" fill="#000000" fill-rule="nonzero" fill-opacity="1" /><path clip-path="url(#clip340)" d="M1863.75 181.618 L1870.72 181.618 L1879.54 205.136 L1888.41 181.618 L1895.37 181.618 L1895.37 216.178 L1890.81 216.178 L1890.81 185.83 L1881.9 209.534 L1877.2 209.534 L1868.29 185.83 L1868.29 216.178 L1863.75 216.178 L1863.75 181.618 Z" fill="#000000" fill-rule="nonzero" fill-opacity="1" /><path clip-path="url(#clip340)" d="M1904.66 181.618 L1909.33 181.618 L1909.33 216.178 L1904.66 216.178 L1904.66 181.618 Z" fill="#000000" fill-rule="nonzero" fill-opacity="1" /><path clip-path="url(#clip340)" d="M1944.52 184.28 L1944.52 189.21 Q1942.16 187.011 1939.47 185.923 Q1936.81 184.835 1933.8 184.835 Q1927.87 184.835 1924.72 188.469 Q1921.58 192.08 1921.58 198.932 Q1921.58 205.761 1924.72 209.395 Q1927.87 213.006 1933.8 213.006 Q1936.81 213.006 1939.47 211.918 Q1942.16 210.83 1944.52 208.631 L1944.52 213.516 Q1942.06 215.182 1939.31 216.016 Q1936.58 216.849 1933.52 216.849 Q1925.67 216.849 1921.16 212.057 Q1916.65 207.242 1916.65 198.932 Q1916.65 190.599 1921.16 185.807 Q1925.67 180.993 1933.52 180.993 Q1936.62 180.993 1939.35 181.826 Q1942.11 182.636 1944.52 184.28 Z" fill="#000000" fill-rule="nonzero" fill-opacity="1" /><path clip-path="url(#clip340)" d="M1963.29 186.224 L1956.95 203.423 L1969.66 203.423 L1963.29 186.224 M1960.65 181.618 L1965.95 181.618 L1979.12 216.178 L1974.26 216.178 L1971.11 207.312 L1955.53 207.312 L1952.39 216.178 L1947.46 216.178 L1960.65 181.618 Z" fill="#000000" fill-rule="nonzero" fill-opacity="1" /><path clip-path="url(#clip340)" d="M1983.75 210.298 L1988.64 210.298 L1988.64 216.178 L1983.75 216.178 L1983.75 210.298 Z" fill="#000000" fill-rule="nonzero" fill-opacity="1" /><path clip-path="url(#clip340)" d="M1998.22 190.252 L2002.48 190.252 L2002.48 216.641 Q2002.48 221.594 2000.58 223.816 Q1998.71 226.039 1994.52 226.039 L1992.9 226.039 L1992.9 222.428 L1994.03 222.428 Q1996.46 222.428 1997.34 221.293 Q1998.22 220.182 1998.22 216.641 L1998.22 190.252 M1998.22 180.159 L2002.48 180.159 L2002.48 185.553 L1998.22 185.553 L1998.22 180.159 Z" fill="#000000" fill-rule="nonzero" fill-opacity="1" /><path clip-path="url(#clip340)" d="M2011.39 180.159 L2015.65 180.159 L2015.65 216.178 L2011.39 216.178 L2011.39 180.159 Z" fill="#000000" fill-rule="nonzero" fill-opacity="1" /><path clip-path="url(#clip340)" d="M2045.12 179.951 L2045.12 227.358 L2041.18 227.358 L2041.18 179.951 L2045.12 179.951 Z" fill="#000000" fill-rule="nonzero" fill-opacity="1" /><path clip-path="url(#clip340)" d="M2055.79 181.618 L2060.46 181.618 L2060.46 212.242 L2077.29 212.242 L2077.29 216.178 L2055.79 216.178 L2055.79 181.618 Z" fill="#000000" fill-rule="nonzero" fill-opacity="1" /><path clip-path="url(#clip340)" d="M2082.2 181.618 L2086.88 181.618 L2086.88 212.242 L2103.71 212.242 L2103.71 216.178 L2082.2 216.178 L2082.2 181.618 Z" fill="#000000" fill-rule="nonzero" fill-opacity="1" /><path clip-path="url(#clip340)" d="M2113.91 179.951 L2113.91 227.358 L2109.98 227.358 L2109.98 179.951 L2113.91 179.951 Z" fill="#000000" fill-rule="nonzero" fill-opacity="1" /></svg>
