<?xml version="1.0" encoding="utf-8"?>
<svg xmlns="http://www.w3.org/2000/svg" xmlns:xlink="http://www.w3.org/1999/xlink" width="600" height="400" viewBox="0 0 2400 1600">
<defs>
  <clipPath id="clip010">
    <rect x="0" y="0" width="2400" height="1600"/>
  </clipPath>
</defs>
<path clip-path="url(#clip010)" d="M0 1600 L2400 1600 L2400 8.88178e-14 L0 8.88178e-14  Z" fill="#ffffff" fill-rule="evenodd" fill-opacity="1"/>
<defs>
  <clipPath id="clip011">
    <rect x="480" y="0" width="1681" height="1600"/>
  </clipPath>
</defs>
<path clip-path="url(#clip010)" d="M254.26 1486.45 L2352.76 1486.45 L2352.76 47.2441 L254.26 47.2441  Z" fill="#ffffff" fill-rule="evenodd" fill-opacity="1"/>
<defs>
  <clipPath id="clip012">
    <rect x="254" y="47" width="2099" height="1440"/>
  </clipPath>
</defs>
<polyline clip-path="url(#clip012)" style="stroke:#000000; stroke-linecap:round; stroke-linejoin:round; stroke-width:2; stroke-opacity:0.1; fill:none" points="262.889,1486.45 262.889,47.2441 "/>
<polyline clip-path="url(#clip012)" style="stroke:#000000; stroke-linecap:round; stroke-linejoin:round; stroke-width:2; stroke-opacity:0.1; fill:none" points="770.508,1486.45 770.508,47.2441 "/>
<polyline clip-path="url(#clip012)" style="stroke:#000000; stroke-linecap:round; stroke-linejoin:round; stroke-width:2; stroke-opacity:0.1; fill:none" points="1278.13,1486.45 1278.13,47.2441 "/>
<polyline clip-path="url(#clip012)" style="stroke:#000000; stroke-linecap:round; stroke-linejoin:round; stroke-width:2; stroke-opacity:0.1; fill:none" points="1785.75,1486.45 1785.75,47.2441 "/>
<polyline clip-path="url(#clip012)" style="stroke:#000000; stroke-linecap:round; stroke-linejoin:round; stroke-width:2; stroke-opacity:0.1; fill:none" points="2293.36,1486.45 2293.36,47.2441 "/>
<polyline clip-path="url(#clip012)" style="stroke:#000000; stroke-linecap:round; stroke-linejoin:round; stroke-width:2; stroke-opacity:0.1; fill:none" points="254.26,1238.86 2352.76,1238.86 "/>
<polyline clip-path="url(#clip012)" style="stroke:#000000; stroke-linecap:round; stroke-linejoin:round; stroke-width:2; stroke-opacity:0.1; fill:none" points="254.26,911.627 2352.76,911.627 "/>
<polyline clip-path="url(#clip012)" style="stroke:#000000; stroke-linecap:round; stroke-linejoin:round; stroke-width:2; stroke-opacity:0.1; fill:none" points="254.26,584.39 2352.76,584.39 "/>
<polyline clip-path="url(#clip012)" style="stroke:#000000; stroke-linecap:round; stroke-linejoin:round; stroke-width:2; stroke-opacity:0.1; fill:none" points="254.26,257.153 2352.76,257.153 "/>
<polyline clip-path="url(#clip010)" style="stroke:#000000; stroke-linecap:round; stroke-linejoin:round; stroke-width:4; stroke-opacity:1; fill:none" points="254.26,1486.45 2352.76,1486.45 "/>
<polyline clip-path="url(#clip010)" style="stroke:#000000; stroke-linecap:round; stroke-linejoin:round; stroke-width:4; stroke-opacity:1; fill:none" points="262.889,1486.45 262.889,1467.55 "/>
<polyline clip-path="url(#clip010)" style="stroke:#000000; stroke-linecap:round; stroke-linejoin:round; stroke-width:4; stroke-opacity:1; fill:none" points="770.508,1486.45 770.508,1467.55 "/>
<polyline clip-path="url(#clip010)" style="stroke:#000000; stroke-linecap:round; stroke-linejoin:round; stroke-width:4; stroke-opacity:1; fill:none" points="1278.13,1486.45 1278.13,1467.55 "/>
<polyline clip-path="url(#clip010)" style="stroke:#000000; stroke-linecap:round; stroke-linejoin:round; stroke-width:4; stroke-opacity:1; fill:none" points="1785.75,1486.45 1785.75,1467.55 "/>
<polyline clip-path="url(#clip010)" style="stroke:#000000; stroke-linecap:round; stroke-linejoin:round; stroke-width:4; stroke-opacity:1; fill:none" points="2293.36,1486.45 2293.36,1467.55 "/>
<path clip-path="url(#clip010)" d="M262.889 1517.37 Q259.278 1517.37 257.449 1520.93 Q255.644 1524.47 255.644 1531.6 Q255.644 1538.71 257.449 1542.27 Q259.278 1545.82 262.889 1545.82 Q266.524 1545.82 268.329 1542.27 Q270.158 1538.71 270.158 1531.6 Q270.158 1524.47 268.329 1520.93 Q266.524 1517.37 262.889 1517.37 M262.889 1513.66 Q268.699 1513.66 271.755 1518.27 Q274.834 1522.85 274.834 1531.6 Q274.834 1540.33 271.755 1544.94 Q268.699 1549.52 262.889 1549.52 Q257.079 1549.52 254 1544.94 Q250.945 1540.33 250.945 1531.6 Q250.945 1522.85 254 1518.27 Q257.079 1513.66 262.889 1513.66 Z" fill="#000000" fill-rule="nonzero" fill-opacity="1" /><path clip-path="url(#clip010)" d="M745.196 1544.91 L752.835 1544.91 L752.835 1518.55 L744.524 1520.21 L744.524 1515.95 L752.788 1514.29 L757.464 1514.29 L757.464 1544.91 L765.103 1544.91 L765.103 1548.85 L745.196 1548.85 L745.196 1544.91 Z" fill="#000000" fill-rule="nonzero" fill-opacity="1" /><path clip-path="url(#clip010)" d="M784.547 1517.37 Q780.936 1517.37 779.108 1520.93 Q777.302 1524.47 777.302 1531.6 Q777.302 1538.71 779.108 1542.27 Q780.936 1545.82 784.547 1545.82 Q788.182 1545.82 789.987 1542.27 Q791.816 1538.71 791.816 1531.6 Q791.816 1524.47 789.987 1520.93 Q788.182 1517.37 784.547 1517.37 M784.547 1513.66 Q790.358 1513.66 793.413 1518.27 Q796.492 1522.85 796.492 1531.6 Q796.492 1540.33 793.413 1544.94 Q790.358 1549.52 784.547 1549.52 Q778.737 1549.52 775.659 1544.94 Q772.603 1540.33 772.603 1531.6 Q772.603 1522.85 775.659 1518.27 Q778.737 1513.66 784.547 1513.66 Z" fill="#000000" fill-rule="nonzero" fill-opacity="1" /><path clip-path="url(#clip010)" d="M1256.9 1544.91 L1273.22 1544.91 L1273.22 1548.85 L1251.28 1548.85 L1251.28 1544.91 Q1253.94 1542.16 1258.52 1537.53 Q1263.13 1532.88 1264.31 1531.53 Q1266.55 1529.01 1267.43 1527.27 Q1268.34 1525.51 1268.34 1523.82 Q1268.34 1521.07 1266.39 1519.33 Q1264.47 1517.6 1261.37 1517.6 Q1259.17 1517.6 1256.71 1518.36 Q1254.28 1519.13 1251.51 1520.68 L1251.51 1515.95 Q1254.33 1514.82 1256.78 1514.24 Q1259.24 1513.66 1261.28 1513.66 Q1266.65 1513.66 1269.84 1516.35 Q1273.03 1519.03 1273.03 1523.52 Q1273.03 1525.65 1272.22 1527.57 Q1271.44 1529.47 1269.33 1532.07 Q1268.75 1532.74 1265.65 1535.95 Q1262.55 1539.15 1256.9 1544.91 Z" fill="#000000" fill-rule="nonzero" fill-opacity="1" /><path clip-path="url(#clip010)" d="M1293.03 1517.37 Q1289.42 1517.37 1287.59 1520.93 Q1285.79 1524.47 1285.79 1531.6 Q1285.79 1538.71 1287.59 1542.27 Q1289.42 1545.82 1293.03 1545.82 Q1296.67 1545.82 1298.47 1542.27 Q1300.3 1538.71 1300.3 1531.6 Q1300.3 1524.47 1298.47 1520.93 Q1296.67 1517.37 1293.03 1517.37 M1293.03 1513.66 Q1298.84 1513.66 1301.9 1518.27 Q1304.98 1522.85 1304.98 1531.6 Q1304.98 1540.33 1301.9 1544.94 Q1298.84 1549.52 1293.03 1549.52 Q1287.22 1549.52 1284.15 1544.94 Q1281.09 1540.33 1281.09 1531.6 Q1281.09 1522.85 1284.15 1518.27 Q1287.22 1513.66 1293.03 1513.66 Z" fill="#000000" fill-rule="nonzero" fill-opacity="1" /><path clip-path="url(#clip010)" d="M1774.59 1530.21 Q1777.94 1530.93 1779.82 1533.2 Q1781.72 1535.47 1781.72 1538.8 Q1781.72 1543.92 1778.2 1546.72 Q1774.68 1549.52 1768.2 1549.52 Q1766.02 1549.52 1763.71 1549.08 Q1761.42 1548.66 1758.96 1547.81 L1758.96 1543.29 Q1760.91 1544.43 1763.22 1545.01 Q1765.54 1545.58 1768.06 1545.58 Q1772.46 1545.58 1774.75 1543.85 Q1777.07 1542.11 1777.07 1538.8 Q1777.07 1535.75 1774.91 1534.03 Q1772.78 1532.3 1768.96 1532.3 L1764.94 1532.3 L1764.94 1528.45 L1769.15 1528.45 Q1772.6 1528.45 1774.43 1527.09 Q1776.26 1525.7 1776.26 1523.11 Q1776.26 1520.45 1774.36 1519.03 Q1772.48 1517.6 1768.96 1517.6 Q1767.04 1517.6 1764.84 1518.01 Q1762.64 1518.43 1760.01 1519.31 L1760.01 1515.14 Q1762.67 1514.4 1764.98 1514.03 Q1767.32 1513.66 1769.38 1513.66 Q1774.7 1513.66 1777.81 1516.09 Q1780.91 1518.5 1780.91 1522.62 Q1780.91 1525.49 1779.26 1527.48 Q1777.62 1529.45 1774.59 1530.21 Z" fill="#000000" fill-rule="nonzero" fill-opacity="1" /><path clip-path="url(#clip010)" d="M1800.58 1517.37 Q1796.97 1517.37 1795.14 1520.93 Q1793.34 1524.47 1793.34 1531.6 Q1793.34 1538.71 1795.14 1542.27 Q1796.97 1545.82 1800.58 1545.82 Q1804.22 1545.82 1806.02 1542.27 Q1807.85 1538.71 1807.85 1531.6 Q1807.85 1524.47 1806.02 1520.93 Q1804.22 1517.37 1800.58 1517.37 M1800.58 1513.66 Q1806.39 1513.66 1809.45 1518.27 Q1812.53 1522.85 1812.53 1531.6 Q1812.53 1540.33 1809.45 1544.94 Q1806.39 1549.52 1800.58 1549.52 Q1794.77 1549.52 1791.69 1544.94 Q1788.64 1540.33 1788.64 1531.6 Q1788.64 1522.85 1791.69 1518.27 Q1794.77 1513.66 1800.58 1513.66 Z" fill="#000000" fill-rule="nonzero" fill-opacity="1" /><path clip-path="url(#clip010)" d="M2281.54 1518.36 L2269.73 1536.81 L2281.54 1536.81 L2281.54 1518.36 M2280.31 1514.29 L2286.19 1514.29 L2286.19 1536.81 L2291.12 1536.81 L2291.12 1540.7 L2286.19 1540.7 L2286.19 1548.85 L2281.54 1548.85 L2281.54 1540.7 L2265.93 1540.7 L2265.93 1536.19 L2280.31 1514.29 Z" fill="#000000" fill-rule="nonzero" fill-opacity="1" /><path clip-path="url(#clip010)" d="M2308.85 1517.37 Q2305.24 1517.37 2303.41 1520.93 Q2301.61 1524.47 2301.61 1531.6 Q2301.61 1538.71 2303.41 1542.27 Q2305.24 1545.82 2308.85 1545.82 Q2312.48 1545.82 2314.29 1542.27 Q2316.12 1538.71 2316.12 1531.6 Q2316.12 1524.47 2314.29 1520.93 Q2312.48 1517.37 2308.85 1517.37 M2308.85 1513.66 Q2314.66 1513.66 2317.72 1518.27 Q2320.79 1522.85 2320.79 1531.6 Q2320.79 1540.33 2317.72 1544.94 Q2314.66 1549.52 2308.85 1549.52 Q2303.04 1549.52 2299.96 1544.94 Q2296.91 1540.33 2296.91 1531.6 Q2296.91 1522.85 2299.96 1518.27 Q2303.04 1513.66 2308.85 1513.66 Z" fill="#000000" fill-rule="nonzero" fill-opacity="1" /><polyline clip-path="url(#clip010)" style="stroke:#000000; stroke-linecap:round; stroke-linejoin:round; stroke-width:4; stroke-opacity:1; fill:none" points="254.26,1486.45 254.26,47.2441 "/>
<polyline clip-path="url(#clip010)" style="stroke:#000000; stroke-linecap:round; stroke-linejoin:round; stroke-width:4; stroke-opacity:1; fill:none" points="254.26,1238.86 273.157,1238.86 "/>
<polyline clip-path="url(#clip010)" style="stroke:#000000; stroke-linecap:round; stroke-linejoin:round; stroke-width:4; stroke-opacity:1; fill:none" points="254.26,911.627 273.157,911.627 "/>
<polyline clip-path="url(#clip010)" style="stroke:#000000; stroke-linecap:round; stroke-linejoin:round; stroke-width:4; stroke-opacity:1; fill:none" points="254.26,584.39 273.157,584.39 "/>
<polyline clip-path="url(#clip010)" style="stroke:#000000; stroke-linecap:round; stroke-linejoin:round; stroke-width:4; stroke-opacity:1; fill:none" points="254.26,257.153 273.157,257.153 "/>
<path clip-path="url(#clip010)" d="M50.9921 1239.32 L80.6679 1239.32 L80.6679 1243.25 L50.9921 1243.25 L50.9921 1239.32 Z" fill="#000000" fill-rule="nonzero" fill-opacity="1" /><path clip-path="url(#clip010)" d="M94.7882 1252.21 L111.108 1252.21 L111.108 1256.14 L89.1632 1256.14 L89.1632 1252.21 Q91.8252 1249.45 96.4085 1244.82 Q101.015 1240.17 102.196 1238.83 Q104.441 1236.31 105.321 1234.57 Q106.223 1232.81 106.223 1231.12 Q106.223 1228.37 104.279 1226.63 Q102.358 1224.89 99.2558 1224.89 Q97.0567 1224.89 94.603 1225.66 Q92.1725 1226.42 89.3947 1227.97 L89.3947 1223.25 Q92.2188 1222.12 94.6724 1221.54 Q97.1261 1220.96 99.1632 1220.96 Q104.534 1220.96 107.728 1223.64 Q110.922 1226.33 110.922 1230.82 Q110.922 1232.95 110.112 1234.87 Q109.325 1236.77 107.219 1239.36 Q106.64 1240.03 103.538 1243.25 Q100.436 1246.44 94.7882 1252.21 Z" fill="#000000" fill-rule="nonzero" fill-opacity="1" /><path clip-path="url(#clip010)" d="M120.922 1250.26 L125.807 1250.26 L125.807 1256.14 L120.922 1256.14 L120.922 1250.26 Z" fill="#000000" fill-rule="nonzero" fill-opacity="1" /><path clip-path="url(#clip010)" d="M148.839 1225.66 L137.033 1244.11 L148.839 1244.11 L148.839 1225.66 M147.612 1221.58 L153.492 1221.58 L153.492 1244.11 L158.422 1244.11 L158.422 1248 L153.492 1248 L153.492 1256.14 L148.839 1256.14 L148.839 1248 L133.237 1248 L133.237 1243.48 L147.612 1221.58 Z" fill="#000000" fill-rule="nonzero" fill-opacity="1" /><path clip-path="url(#clip010)" d="M166.2 1221.58 L184.556 1221.58 L184.556 1225.52 L170.482 1225.52 L170.482 1233.99 Q171.501 1233.64 172.519 1233.48 Q173.538 1233.3 174.556 1233.3 Q180.343 1233.3 183.723 1236.47 Q187.103 1239.64 187.103 1245.06 Q187.103 1250.63 183.63 1253.74 Q180.158 1256.82 173.839 1256.82 Q171.663 1256.82 169.394 1256.44 Q167.149 1256.07 164.742 1255.33 L164.742 1250.63 Q166.825 1251.77 169.047 1252.32 Q171.269 1252.88 173.746 1252.88 Q177.751 1252.88 180.089 1250.77 Q182.427 1248.67 182.427 1245.06 Q182.427 1241.44 180.089 1239.34 Q177.751 1237.23 173.746 1237.23 Q171.871 1237.23 169.996 1237.65 Q168.144 1238.07 166.2 1238.94 L166.2 1221.58 Z" fill="#000000" fill-rule="nonzero" fill-opacity="1" /><path clip-path="url(#clip010)" d="M206.315 1224.66 Q202.704 1224.66 200.876 1228.23 Q199.07 1231.77 199.07 1238.9 Q199.07 1246.01 200.876 1249.57 Q202.704 1253.11 206.315 1253.11 Q209.95 1253.11 211.755 1249.57 Q213.584 1246.01 213.584 1238.9 Q213.584 1231.77 211.755 1228.23 Q209.95 1224.66 206.315 1224.66 M206.315 1220.96 Q212.126 1220.96 215.181 1225.57 Q218.26 1230.15 218.26 1238.9 Q218.26 1247.63 215.181 1252.23 Q212.126 1256.82 206.315 1256.82 Q200.505 1256.82 197.427 1252.23 Q194.371 1247.63 194.371 1238.9 Q194.371 1230.15 197.427 1225.57 Q200.505 1220.96 206.315 1220.96 Z" fill="#000000" fill-rule="nonzero" fill-opacity="1" /><path clip-path="url(#clip010)" d="M51.9875 912.078 L81.6633 912.078 L81.6633 916.014 L51.9875 916.014 L51.9875 912.078 Z" fill="#000000" fill-rule="nonzero" fill-opacity="1" /><path clip-path="url(#clip010)" d="M95.7836 924.972 L112.103 924.972 L112.103 928.907 L90.1586 928.907 L90.1586 924.972 Q92.8206 922.217 97.4039 917.588 Q102.01 912.935 103.191 911.592 Q105.436 909.069 106.316 907.333 Q107.219 905.574 107.219 903.884 Q107.219 901.129 105.274 899.393 Q103.353 897.657 100.251 897.657 Q98.0521 897.657 95.5984 898.421 Q93.1678 899.185 90.3901 900.736 L90.3901 896.014 Q93.2141 894.879 95.6678 894.301 Q98.1215 893.722 100.159 893.722 Q105.529 893.722 108.723 896.407 Q111.918 899.092 111.918 903.583 Q111.918 905.713 111.108 907.634 Q110.321 909.532 108.214 912.125 Q107.635 912.796 104.534 916.014 Q101.432 919.208 95.7836 924.972 Z" fill="#000000" fill-rule="nonzero" fill-opacity="1" /><path clip-path="url(#clip010)" d="M121.918 923.027 L126.802 923.027 L126.802 928.907 L121.918 928.907 L121.918 923.027 Z" fill="#000000" fill-rule="nonzero" fill-opacity="1" /><path clip-path="url(#clip010)" d="M149.834 898.421 L138.029 916.87 L149.834 916.87 L149.834 898.421 M148.607 894.347 L154.487 894.347 L154.487 916.87 L159.417 916.87 L159.417 920.759 L154.487 920.759 L154.487 928.907 L149.834 928.907 L149.834 920.759 L134.232 920.759 L134.232 916.245 L148.607 894.347 Z" fill="#000000" fill-rule="nonzero" fill-opacity="1" /><path clip-path="url(#clip010)" d="M171.177 924.972 L187.496 924.972 L187.496 928.907 L165.552 928.907 L165.552 924.972 Q168.214 922.217 172.797 917.588 Q177.403 912.935 178.584 911.592 Q180.829 909.069 181.709 907.333 Q182.612 905.574 182.612 903.884 Q182.612 901.129 180.667 899.393 Q178.746 897.657 175.644 897.657 Q173.445 897.657 170.991 898.421 Q168.561 899.185 165.783 900.736 L165.783 896.014 Q168.607 894.879 171.061 894.301 Q173.515 893.722 175.552 893.722 Q180.922 893.722 184.116 896.407 Q187.311 899.092 187.311 903.583 Q187.311 905.713 186.501 907.634 Q185.714 909.532 183.607 912.125 Q183.028 912.796 179.927 916.014 Q176.825 919.208 171.177 924.972 Z" fill="#000000" fill-rule="nonzero" fill-opacity="1" /><path clip-path="url(#clip010)" d="M197.357 894.347 L215.713 894.347 L215.713 898.282 L201.639 898.282 L201.639 906.754 Q202.658 906.407 203.676 906.245 Q204.695 906.06 205.714 906.06 Q211.501 906.06 214.88 909.231 Q218.26 912.403 218.26 917.819 Q218.26 923.398 214.788 926.5 Q211.315 929.578 204.996 929.578 Q202.82 929.578 200.552 929.208 Q198.306 928.838 195.899 928.097 L195.899 923.398 Q197.982 924.532 200.204 925.088 Q202.426 925.643 204.903 925.643 Q208.908 925.643 211.246 923.537 Q213.584 921.43 213.584 917.819 Q213.584 914.208 211.246 912.102 Q208.908 909.995 204.903 909.995 Q203.028 909.995 201.153 910.412 Q199.302 910.828 197.357 911.708 L197.357 894.347 Z" fill="#000000" fill-rule="nonzero" fill-opacity="1" /><path clip-path="url(#clip010)" d="M50.9921 584.842 L80.6679 584.842 L80.6679 588.777 L50.9921 588.777 L50.9921 584.842 Z" fill="#000000" fill-rule="nonzero" fill-opacity="1" /><path clip-path="url(#clip010)" d="M94.7882 597.735 L111.108 597.735 L111.108 601.67 L89.1632 601.67 L89.1632 597.735 Q91.8252 594.98 96.4085 590.351 Q101.015 585.698 102.196 584.356 Q104.441 581.832 105.321 580.096 Q106.223 578.337 106.223 576.647 Q106.223 573.893 104.279 572.157 Q102.358 570.42 99.2558 570.42 Q97.0567 570.42 94.603 571.184 Q92.1725 571.948 89.3947 573.499 L89.3947 568.777 Q92.2188 567.643 94.6724 567.064 Q97.1261 566.485 99.1632 566.485 Q104.534 566.485 107.728 569.17 Q110.922 571.856 110.922 576.346 Q110.922 578.476 110.112 580.397 Q109.325 582.295 107.219 584.888 Q106.64 585.559 103.538 588.777 Q100.436 591.971 94.7882 597.735 Z" fill="#000000" fill-rule="nonzero" fill-opacity="1" /><path clip-path="url(#clip010)" d="M120.922 595.791 L125.807 595.791 L125.807 601.67 L120.922 601.67 L120.922 595.791 Z" fill="#000000" fill-rule="nonzero" fill-opacity="1" /><path clip-path="url(#clip010)" d="M148.839 571.184 L137.033 589.633 L148.839 589.633 L148.839 571.184 M147.612 567.11 L153.492 567.11 L153.492 589.633 L158.422 589.633 L158.422 593.522 L153.492 593.522 L153.492 601.67 L148.839 601.67 L148.839 593.522 L133.237 593.522 L133.237 589.008 L147.612 567.11 Z" fill="#000000" fill-rule="nonzero" fill-opacity="1" /><path clip-path="url(#clip010)" d="M176.153 570.189 Q172.542 570.189 170.714 573.754 Q168.908 577.295 168.908 584.425 Q168.908 591.531 170.714 595.096 Q172.542 598.638 176.153 598.638 Q179.788 598.638 181.593 595.096 Q183.422 591.531 183.422 584.425 Q183.422 577.295 181.593 573.754 Q179.788 570.189 176.153 570.189 M176.153 566.485 Q181.964 566.485 185.019 571.092 Q188.098 575.675 188.098 584.425 Q188.098 593.152 185.019 597.758 Q181.964 602.342 176.153 602.342 Q170.343 602.342 167.265 597.758 Q164.209 593.152 164.209 584.425 Q164.209 575.675 167.265 571.092 Q170.343 566.485 176.153 566.485 Z" fill="#000000" fill-rule="nonzero" fill-opacity="1" /><path clip-path="url(#clip010)" d="M206.315 570.189 Q202.704 570.189 200.876 573.754 Q199.07 577.295 199.07 584.425 Q199.07 591.531 200.876 595.096 Q202.704 598.638 206.315 598.638 Q209.95 598.638 211.755 595.096 Q213.584 591.531 213.584 584.425 Q213.584 577.295 211.755 573.754 Q209.95 570.189 206.315 570.189 M206.315 566.485 Q212.126 566.485 215.181 571.092 Q218.26 575.675 218.26 584.425 Q218.26 593.152 215.181 597.758 Q212.126 602.342 206.315 602.342 Q200.505 602.342 197.427 597.758 Q194.371 593.152 194.371 584.425 Q194.371 575.675 197.427 571.092 Q200.505 566.485 206.315 566.485 Z" fill="#000000" fill-rule="nonzero" fill-opacity="1" /><path clip-path="url(#clip010)" d="M51.9875 257.605 L81.6633 257.605 L81.6633 261.54 L51.9875 261.54 L51.9875 257.605 Z" fill="#000000" fill-rule="nonzero" fill-opacity="1" /><path clip-path="url(#clip010)" d="M95.7836 270.498 L112.103 270.498 L112.103 274.433 L90.1586 274.433 L90.1586 270.498 Q92.8206 267.744 97.4039 263.114 Q102.01 258.461 103.191 257.119 Q105.436 254.596 106.316 252.859 Q107.219 251.1 107.219 249.41 Q107.219 246.656 105.274 244.92 Q103.353 243.184 100.251 243.184 Q98.0521 243.184 95.5984 243.947 Q93.1678 244.711 90.3901 246.262 L90.3901 241.54 Q93.2141 240.406 95.6678 239.827 Q98.1215 239.248 100.159 239.248 Q105.529 239.248 108.723 241.934 Q111.918 244.619 111.918 249.109 Q111.918 251.239 111.108 253.16 Q110.321 255.059 108.214 257.651 Q107.635 258.322 104.534 261.54 Q101.432 264.734 95.7836 270.498 Z" fill="#000000" fill-rule="nonzero" fill-opacity="1" /><path clip-path="url(#clip010)" d="M121.918 268.554 L126.802 268.554 L126.802 274.433 L121.918 274.433 L121.918 268.554 Z" fill="#000000" fill-rule="nonzero" fill-opacity="1" /><path clip-path="url(#clip010)" d="M151.154 255.799 Q154.51 256.517 156.385 258.785 Q158.283 261.054 158.283 264.387 Q158.283 269.503 154.765 272.304 Q151.246 275.105 144.765 275.105 Q142.589 275.105 140.274 274.665 Q137.982 274.248 135.529 273.392 L135.529 268.878 Q137.473 270.012 139.788 270.591 Q142.103 271.17 144.626 271.17 Q149.024 271.17 151.316 269.433 Q153.63 267.697 153.63 264.387 Q153.63 261.332 151.478 259.619 Q149.348 257.883 145.529 257.883 L141.501 257.883 L141.501 254.04 L145.714 254.04 Q149.163 254.04 150.992 252.674 Q152.82 251.285 152.82 248.693 Q152.82 246.031 150.922 244.619 Q149.047 243.184 145.529 243.184 Q143.607 243.184 141.408 243.6 Q139.209 244.017 136.57 244.897 L136.57 240.73 Q139.232 239.989 141.547 239.619 Q143.885 239.248 145.945 239.248 Q151.269 239.248 154.371 241.679 Q157.473 244.086 157.473 248.207 Q157.473 251.077 155.83 253.068 Q154.186 255.035 151.154 255.799 Z" fill="#000000" fill-rule="nonzero" fill-opacity="1" /><path clip-path="url(#clip010)" d="M165.968 239.873 L188.19 239.873 L188.19 241.864 L175.644 274.433 L170.76 274.433 L182.565 243.809 L165.968 243.809 L165.968 239.873 Z" fill="#000000" fill-rule="nonzero" fill-opacity="1" /><path clip-path="url(#clip010)" d="M197.357 239.873 L215.713 239.873 L215.713 243.809 L201.639 243.809 L201.639 252.281 Q202.658 251.934 203.676 251.772 Q204.695 251.586 205.714 251.586 Q211.501 251.586 214.88 254.758 Q218.26 257.929 218.26 263.346 Q218.26 268.924 214.788 272.026 Q211.315 275.105 204.996 275.105 Q202.82 275.105 200.552 274.734 Q198.306 274.364 195.899 273.623 L195.899 268.924 Q197.982 270.058 200.204 270.614 Q202.426 271.17 204.903 271.17 Q208.908 271.17 211.246 269.063 Q213.584 266.957 213.584 263.346 Q213.584 259.734 211.246 257.628 Q208.908 255.521 204.903 255.521 Q203.028 255.521 201.153 255.938 Q199.302 256.355 197.357 257.234 L197.357 239.873 Z" fill="#000000" fill-rule="nonzero" fill-opacity="1" /><polyline clip-path="url(#clip012)" style="stroke:#009af9; stroke-linecap:round; stroke-linejoin:round; stroke-width:4; stroke-opacity:1; fill:none" points="313.651,1429.89 364.413,697.904 415.175,559.665 465.937,495.454 516.699,448.02 567.461,407.261 618.222,371.02 668.984,338.468 719.746,307.606 770.508,276.437 821.27,247.026 872.032,220.853 922.794,199.508 973.556,182.8 1024.32,169.984 1075.08,159.866 1125.84,151.573 1176.6,144.729 1227.37,139.015 1278.13,134.24 1328.89,130.179 1379.65,126.67 1430.41,123.537 1481.17,120.691 1531.94,118.071 1582.7,115.616 1633.46,113.272 1684.22,111.03 1734.98,108.847 1785.75,106.713 1836.51,104.609 1887.27,102.529 1938.03,100.461 1988.79,98.4187 2039.56,96.4169 2090.32,94.5017 2141.08,92.6877 2191.84,90.9922 2242.6,89.4425 2293.36,88.0444 "/>
<circle clip-path="url(#clip012)" cx="313.651" cy="1429.89" r="14.4" fill="#009af9" fill-rule="evenodd" fill-opacity="1" stroke="#000000" stroke-opacity="1" stroke-width="3.2"/>
<circle clip-path="url(#clip012)" cx="364.413" cy="697.904" r="14.4" fill="#009af9" fill-rule="evenodd" fill-opacity="1" stroke="#000000" stroke-opacity="1" stroke-width="3.2"/>
<circle clip-path="url(#clip012)" cx="415.175" cy="559.665" r="14.4" fill="#009af9" fill-rule="evenodd" fill-opacity="1" stroke="#000000" stroke-opacity="1" stroke-width="3.2"/>
<circle clip-path="url(#clip012)" cx="465.937" cy="495.454" r="14.4" fill="#009af9" fill-rule="evenodd" fill-opacity="1" stroke="#000000" stroke-opacity="1" stroke-width="3.2"/>
<circle clip-path="url(#clip012)" cx="516.699" cy="448.02" r="14.4" fill="#009af9" fill-rule="evenodd" fill-opacity="1" stroke="#000000" stroke-opacity="1" stroke-width="3.2"/>
<circle clip-path="url(#clip012)" cx="567.461" cy="407.261" r="14.4" fill="#009af9" fill-rule="evenodd" fill-opacity="1" stroke="#000000" stroke-opacity="1" stroke-width="3.2"/>
<circle clip-path="url(#clip012)" cx="618.222" cy="371.02" r="14.4" fill="#009af9" fill-rule="evenodd" fill-opacity="1" stroke="#000000" stroke-opacity="1" stroke-width="3.2"/>
<circle clip-path="url(#clip012)" cx="668.984" cy="338.468" r="14.4" fill="#009af9" fill-rule="evenodd" fill-opacity="1" stroke="#000000" stroke-opacity="1" stroke-width="3.2"/>
<circle clip-path="url(#clip012)" cx="719.746" cy="307.606" r="14.4" fill="#009af9" fill-rule="evenodd" fill-opacity="1" stroke="#000000" stroke-opacity="1" stroke-width="3.2"/>
<circle clip-path="url(#clip012)" cx="770.508" cy="276.437" r="14.4" fill="#009af9" fill-rule="evenodd" fill-opacity="1" stroke="#000000" stroke-opacity="1" stroke-width="3.2"/>
<circle clip-path="url(#clip012)" cx="821.27" cy="247.026" r="14.4" fill="#009af9" fill-rule="evenodd" fill-opacity="1" stroke="#000000" stroke-opacity="1" stroke-width="3.2"/>
<circle clip-path="url(#clip012)" cx="872.032" cy="220.853" r="14.4" fill="#009af9" fill-rule="evenodd" fill-opacity="1" stroke="#000000" stroke-opacity="1" stroke-width="3.2"/>
<circle clip-path="url(#clip012)" cx="922.794" cy="199.508" r="14.4" fill="#009af9" fill-rule="evenodd" fill-opacity="1" stroke="#000000" stroke-opacity="1" stroke-width="3.2"/>
<circle clip-path="url(#clip012)" cx="973.556" cy="182.8" r="14.4" fill="#009af9" fill-rule="evenodd" fill-opacity="1" stroke="#000000" stroke-opacity="1" stroke-width="3.2"/>
<circle clip-path="url(#clip012)" cx="1024.32" cy="169.984" r="14.4" fill="#009af9" fill-rule="evenodd" fill-opacity="1" stroke="#000000" stroke-opacity="1" stroke-width="3.2"/>
<circle clip-path="url(#clip012)" cx="1075.08" cy="159.866" r="14.4" fill="#009af9" fill-rule="evenodd" fill-opacity="1" stroke="#000000" stroke-opacity="1" stroke-width="3.2"/>
<circle clip-path="url(#clip012)" cx="1125.84" cy="151.573" r="14.4" fill="#009af9" fill-rule="evenodd" fill-opacity="1" stroke="#000000" stroke-opacity="1" stroke-width="3.2"/>
<circle clip-path="url(#clip012)" cx="1176.6" cy="144.729" r="14.4" fill="#009af9" fill-rule="evenodd" fill-opacity="1" stroke="#000000" stroke-opacity="1" stroke-width="3.2"/>
<circle clip-path="url(#clip012)" cx="1227.37" cy="139.015" r="14.4" fill="#009af9" fill-rule="evenodd" fill-opacity="1" stroke="#000000" stroke-opacity="1" stroke-width="3.2"/>
<circle clip-path="url(#clip012)" cx="1278.13" cy="134.24" r="14.4" fill="#009af9" fill-rule="evenodd" fill-opacity="1" stroke="#000000" stroke-opacity="1" stroke-width="3.2"/>
<circle clip-path="url(#clip012)" cx="1328.89" cy="130.179" r="14.4" fill="#009af9" fill-rule="evenodd" fill-opacity="1" stroke="#000000" stroke-opacity="1" stroke-width="3.2"/>
<circle clip-path="url(#clip012)" cx="1379.65" cy="126.67" r="14.4" fill="#009af9" fill-rule="evenodd" fill-opacity="1" stroke="#000000" stroke-opacity="1" stroke-width="3.2"/>
<circle clip-path="url(#clip012)" cx="1430.41" cy="123.537" r="14.4" fill="#009af9" fill-rule="evenodd" fill-opacity="1" stroke="#000000" stroke-opacity="1" stroke-width="3.2"/>
<circle clip-path="url(#clip012)" cx="1481.17" cy="120.691" r="14.4" fill="#009af9" fill-rule="evenodd" fill-opacity="1" stroke="#000000" stroke-opacity="1" stroke-width="3.2"/>
<circle clip-path="url(#clip012)" cx="1531.94" cy="118.071" r="14.4" fill="#009af9" fill-rule="evenodd" fill-opacity="1" stroke="#000000" stroke-opacity="1" stroke-width="3.2"/>
<circle clip-path="url(#clip012)" cx="1582.7" cy="115.616" r="14.4" fill="#009af9" fill-rule="evenodd" fill-opacity="1" stroke="#000000" stroke-opacity="1" stroke-width="3.2"/>
<circle clip-path="url(#clip012)" cx="1633.46" cy="113.272" r="14.4" fill="#009af9" fill-rule="evenodd" fill-opacity="1" stroke="#000000" stroke-opacity="1" stroke-width="3.2"/>
<circle clip-path="url(#clip012)" cx="1684.22" cy="111.03" r="14.4" fill="#009af9" fill-rule="evenodd" fill-opacity="1" stroke="#000000" stroke-opacity="1" stroke-width="3.2"/>
<circle clip-path="url(#clip012)" cx="1734.98" cy="108.847" r="14.4" fill="#009af9" fill-rule="evenodd" fill-opacity="1" stroke="#000000" stroke-opacity="1" stroke-width="3.2"/>
<circle clip-path="url(#clip012)" cx="1785.75" cy="106.713" r="14.4" fill="#009af9" fill-rule="evenodd" fill-opacity="1" stroke="#000000" stroke-opacity="1" stroke-width="3.2"/>
<circle clip-path="url(#clip012)" cx="1836.51" cy="104.609" r="14.4" fill="#009af9" fill-rule="evenodd" fill-opacity="1" stroke="#000000" stroke-opacity="1" stroke-width="3.2"/>
<circle clip-path="url(#clip012)" cx="1887.27" cy="102.529" r="14.4" fill="#009af9" fill-rule="evenodd" fill-opacity="1" stroke="#000000" stroke-opacity="1" stroke-width="3.2"/>
<circle clip-path="url(#clip012)" cx="1938.03" cy="100.461" r="14.4" fill="#009af9" fill-rule="evenodd" fill-opacity="1" stroke="#000000" stroke-opacity="1" stroke-width="3.2"/>
<circle clip-path="url(#clip012)" cx="1988.79" cy="98.4187" r="14.4" fill="#009af9" fill-rule="evenodd" fill-opacity="1" stroke="#000000" stroke-opacity="1" stroke-width="3.2"/>
<circle clip-path="url(#clip012)" cx="2039.56" cy="96.4169" r="14.4" fill="#009af9" fill-rule="evenodd" fill-opacity="1" stroke="#000000" stroke-opacity="1" stroke-width="3.2"/>
<circle clip-path="url(#clip012)" cx="2090.32" cy="94.5017" r="14.4" fill="#009af9" fill-rule="evenodd" fill-opacity="1" stroke="#000000" stroke-opacity="1" stroke-width="3.2"/>
<circle clip-path="url(#clip012)" cx="2141.08" cy="92.6877" r="14.4" fill="#009af9" fill-rule="evenodd" fill-opacity="1" stroke="#000000" stroke-opacity="1" stroke-width="3.2"/>
<circle clip-path="url(#clip012)" cx="2191.84" cy="90.9922" r="14.4" fill="#009af9" fill-rule="evenodd" fill-opacity="1" stroke="#000000" stroke-opacity="1" stroke-width="3.2"/>
<circle clip-path="url(#clip012)" cx="2242.6" cy="89.4425" r="14.4" fill="#009af9" fill-rule="evenodd" fill-opacity="1" stroke="#000000" stroke-opacity="1" stroke-width="3.2"/>
<circle clip-path="url(#clip012)" cx="2293.36" cy="88.0444" r="14.4" fill="#009af9" fill-rule="evenodd" fill-opacity="1" stroke="#000000" stroke-opacity="1" stroke-width="3.2"/>
<polyline clip-path="url(#clip012)" style="stroke:#e26f46; stroke-linecap:round; stroke-linejoin:round; stroke-width:4; stroke-opacity:1; fill:none" points="313.651,1445.72 364.413,704.681 415.175,562.097 465.937,496.024 516.699,447.859 567.461,407.01 618.222,371.401 668.984,339.582 719.746,309.804 770.508,279.844 821.27,251.298 872.032,225.169 922.794,203.185 973.556,185.607 1024.32,172.097 1075.08,161.491 1125.84,152.863 1176.6,145.715 1227.37,139.712 1278.13,134.659 1328.89,130.409 1379.65,126.759 1430.41,123.55 1481.17,120.661 1531.94,118 1582.7,115.51 1633.46,113.139 1684.22,110.846 1734.98,108.607 1785.75,106.412 1836.51,104.25 1887.27,102.111 1938.03,99.9992 1988.79,97.946 2039.56,95.9607 2090.32,94.0879 2141.08,92.3374 2191.84,90.7311 2242.6,89.2795 2293.36,87.9763 "/>
<circle clip-path="url(#clip012)" cx="313.651" cy="1445.72" r="14.4" fill="#e26f46" fill-rule="evenodd" fill-opacity="1" stroke="#000000" stroke-opacity="1" stroke-width="3.2"/>
<circle clip-path="url(#clip012)" cx="364.413" cy="704.681" r="14.4" fill="#e26f46" fill-rule="evenodd" fill-opacity="1" stroke="#000000" stroke-opacity="1" stroke-width="3.2"/>
<circle clip-path="url(#clip012)" cx="415.175" cy="562.097" r="14.4" fill="#e26f46" fill-rule="evenodd" fill-opacity="1" stroke="#000000" stroke-opacity="1" stroke-width="3.2"/>
<circle clip-path="url(#clip012)" cx="465.937" cy="496.024" r="14.4" fill="#e26f46" fill-rule="evenodd" fill-opacity="1" stroke="#000000" stroke-opacity="1" stroke-width="3.2"/>
<circle clip-path="url(#clip012)" cx="516.699" cy="447.859" r="14.4" fill="#e26f46" fill-rule="evenodd" fill-opacity="1" stroke="#000000" stroke-opacity="1" stroke-width="3.2"/>
<circle clip-path="url(#clip012)" cx="567.461" cy="407.01" r="14.4" fill="#e26f46" fill-rule="evenodd" fill-opacity="1" stroke="#000000" stroke-opacity="1" stroke-width="3.2"/>
<circle clip-path="url(#clip012)" cx="618.222" cy="371.401" r="14.4" fill="#e26f46" fill-rule="evenodd" fill-opacity="1" stroke="#000000" stroke-opacity="1" stroke-width="3.2"/>
<circle clip-path="url(#clip012)" cx="668.984" cy="339.582" r="14.4" fill="#e26f46" fill-rule="evenodd" fill-opacity="1" stroke="#000000" stroke-opacity="1" stroke-width="3.2"/>
<circle clip-path="url(#clip012)" cx="719.746" cy="309.804" r="14.4" fill="#e26f46" fill-rule="evenodd" fill-opacity="1" stroke="#000000" stroke-opacity="1" stroke-width="3.2"/>
<circle clip-path="url(#clip012)" cx="770.508" cy="279.844" r="14.4" fill="#e26f46" fill-rule="evenodd" fill-opacity="1" stroke="#000000" stroke-opacity="1" stroke-width="3.2"/>
<circle clip-path="url(#clip012)" cx="821.27" cy="251.298" r="14.4" fill="#e26f46" fill-rule="evenodd" fill-opacity="1" stroke="#000000" stroke-opacity="1" stroke-width="3.2"/>
<circle clip-path="url(#clip012)" cx="872.032" cy="225.169" r="14.4" fill="#e26f46" fill-rule="evenodd" fill-opacity="1" stroke="#000000" stroke-opacity="1" stroke-width="3.2"/>
<circle clip-path="url(#clip012)" cx="922.794" cy="203.185" r="14.4" fill="#e26f46" fill-rule="evenodd" fill-opacity="1" stroke="#000000" stroke-opacity="1" stroke-width="3.2"/>
<circle clip-path="url(#clip012)" cx="973.556" cy="185.607" r="14.4" fill="#e26f46" fill-rule="evenodd" fill-opacity="1" stroke="#000000" stroke-opacity="1" stroke-width="3.2"/>
<circle clip-path="url(#clip012)" cx="1024.32" cy="172.097" r="14.4" fill="#e26f46" fill-rule="evenodd" fill-opacity="1" stroke="#000000" stroke-opacity="1" stroke-width="3.2"/>
<circle clip-path="url(#clip012)" cx="1075.08" cy="161.491" r="14.4" fill="#e26f46" fill-rule="evenodd" fill-opacity="1" stroke="#000000" stroke-opacity="1" stroke-width="3.2"/>
<circle clip-path="url(#clip012)" cx="1125.84" cy="152.863" r="14.4" fill="#e26f46" fill-rule="evenodd" fill-opacity="1" stroke="#000000" stroke-opacity="1" stroke-width="3.2"/>
<circle clip-path="url(#clip012)" cx="1176.6" cy="145.715" r="14.4" fill="#e26f46" fill-rule="evenodd" fill-opacity="1" stroke="#000000" stroke-opacity="1" stroke-width="3.2"/>
<circle clip-path="url(#clip012)" cx="1227.37" cy="139.712" r="14.4" fill="#e26f46" fill-rule="evenodd" fill-opacity="1" stroke="#000000" stroke-opacity="1" stroke-width="3.2"/>
<circle clip-path="url(#clip012)" cx="1278.13" cy="134.659" r="14.4" fill="#e26f46" fill-rule="evenodd" fill-opacity="1" stroke="#000000" stroke-opacity="1" stroke-width="3.2"/>
<circle clip-path="url(#clip012)" cx="1328.89" cy="130.409" r="14.4" fill="#e26f46" fill-rule="evenodd" fill-opacity="1" stroke="#000000" stroke-opacity="1" stroke-width="3.2"/>
<circle clip-path="url(#clip012)" cx="1379.65" cy="126.759" r="14.4" fill="#e26f46" fill-rule="evenodd" fill-opacity="1" stroke="#000000" stroke-opacity="1" stroke-width="3.2"/>
<circle clip-path="url(#clip012)" cx="1430.41" cy="123.55" r="14.4" fill="#e26f46" fill-rule="evenodd" fill-opacity="1" stroke="#000000" stroke-opacity="1" stroke-width="3.2"/>
<circle clip-path="url(#clip012)" cx="1481.17" cy="120.661" r="14.4" fill="#e26f46" fill-rule="evenodd" fill-opacity="1" stroke="#000000" stroke-opacity="1" stroke-width="3.2"/>
<circle clip-path="url(#clip012)" cx="1531.94" cy="118" r="14.4" fill="#e26f46" fill-rule="evenodd" fill-opacity="1" stroke="#000000" stroke-opacity="1" stroke-width="3.2"/>
<circle clip-path="url(#clip012)" cx="1582.7" cy="115.51" r="14.4" fill="#e26f46" fill-rule="evenodd" fill-opacity="1" stroke="#000000" stroke-opacity="1" stroke-width="3.2"/>
<circle clip-path="url(#clip012)" cx="1633.46" cy="113.139" r="14.4" fill="#e26f46" fill-rule="evenodd" fill-opacity="1" stroke="#000000" stroke-opacity="1" stroke-width="3.2"/>
<circle clip-path="url(#clip012)" cx="1684.22" cy="110.846" r="14.4" fill="#e26f46" fill-rule="evenodd" fill-opacity="1" stroke="#000000" stroke-opacity="1" stroke-width="3.2"/>
<circle clip-path="url(#clip012)" cx="1734.98" cy="108.607" r="14.4" fill="#e26f46" fill-rule="evenodd" fill-opacity="1" stroke="#000000" stroke-opacity="1" stroke-width="3.2"/>
<circle clip-path="url(#clip012)" cx="1785.75" cy="106.412" r="14.4" fill="#e26f46" fill-rule="evenodd" fill-opacity="1" stroke="#000000" stroke-opacity="1" stroke-width="3.2"/>
<circle clip-path="url(#clip012)" cx="1836.51" cy="104.25" r="14.4" fill="#e26f46" fill-rule="evenodd" fill-opacity="1" stroke="#000000" stroke-opacity="1" stroke-width="3.2"/>
<circle clip-path="url(#clip012)" cx="1887.27" cy="102.111" r="14.4" fill="#e26f46" fill-rule="evenodd" fill-opacity="1" stroke="#000000" stroke-opacity="1" stroke-width="3.2"/>
<circle clip-path="url(#clip012)" cx="1938.03" cy="99.9992" r="14.4" fill="#e26f46" fill-rule="evenodd" fill-opacity="1" stroke="#000000" stroke-opacity="1" stroke-width="3.2"/>
<circle clip-path="url(#clip012)" cx="1988.79" cy="97.946" r="14.4" fill="#e26f46" fill-rule="evenodd" fill-opacity="1" stroke="#000000" stroke-opacity="1" stroke-width="3.2"/>
<circle clip-path="url(#clip012)" cx="2039.56" cy="95.9607" r="14.4" fill="#e26f46" fill-rule="evenodd" fill-opacity="1" stroke="#000000" stroke-opacity="1" stroke-width="3.2"/>
<circle clip-path="url(#clip012)" cx="2090.32" cy="94.0879" r="14.4" fill="#e26f46" fill-rule="evenodd" fill-opacity="1" stroke="#000000" stroke-opacity="1" stroke-width="3.2"/>
<circle clip-path="url(#clip012)" cx="2141.08" cy="92.3374" r="14.4" fill="#e26f46" fill-rule="evenodd" fill-opacity="1" stroke="#000000" stroke-opacity="1" stroke-width="3.2"/>
<circle clip-path="url(#clip012)" cx="2191.84" cy="90.7311" r="14.4" fill="#e26f46" fill-rule="evenodd" fill-opacity="1" stroke="#000000" stroke-opacity="1" stroke-width="3.2"/>
<circle clip-path="url(#clip012)" cx="2242.6" cy="89.2795" r="14.4" fill="#e26f46" fill-rule="evenodd" fill-opacity="1" stroke="#000000" stroke-opacity="1" stroke-width="3.2"/>
<circle clip-path="url(#clip012)" cx="2293.36" cy="87.9763" r="14.4" fill="#e26f46" fill-rule="evenodd" fill-opacity="1" stroke="#000000" stroke-opacity="1" stroke-width="3.2"/>
<path clip-path="url(#clip010)" d="M1666.52 1438.47 L2282.81 1438.47 L2282.81 1282.95 L1666.52 1282.95  Z" fill="#ffffff" fill-rule="evenodd" fill-opacity="1"/>
<polyline clip-path="url(#clip010)" style="stroke:#000000; stroke-linecap:round; stroke-linejoin:round; stroke-width:4; stroke-opacity:1; fill:none" points="1666.52,1438.47 2282.81,1438.47 2282.81,1282.95 1666.52,1282.95 1666.52,1438.47 "/>
<polyline clip-path="url(#clip010)" style="stroke:#009af9; stroke-linecap:round; stroke-linejoin:round; stroke-width:4; stroke-opacity:1; fill:none" points="1689.84,1334.79 1829.74,1334.79 "/>
<circle clip-path="url(#clip010)" cx="1759.79" cy="1334.79" r="19.4305" fill="#009af9" fill-rule="evenodd" fill-opacity="1" stroke="#000000" stroke-opacity="1" stroke-width="4.55111"/>
<path clip-path="url(#clip010)" d="M1868.89 1322.12 L1862.55 1339.32 L1875.26 1339.32 L1868.89 1322.12 M1866.25 1317.51 L1871.55 1317.51 L1884.72 1352.07 L1879.86 1352.07 L1876.71 1343.21 L1861.14 1343.21 L1857.99 1352.07 L1853.06 1352.07 L1866.25 1317.51 Z" fill="#000000" fill-rule="nonzero" fill-opacity="1" /><path clip-path="url(#clip010)" d="M1889.77 1317.51 L1896.74 1317.51 L1905.56 1341.03 L1914.42 1317.51 L1921.39 1317.51 L1921.39 1352.07 L1916.83 1352.07 L1916.83 1321.73 L1907.92 1345.43 L1903.22 1345.43 L1894.31 1321.73 L1894.31 1352.07 L1889.77 1352.07 L1889.77 1317.51 Z" fill="#000000" fill-rule="nonzero" fill-opacity="1" /><path clip-path="url(#clip010)" d="M1930.67 1317.51 L1935.35 1317.51 L1935.35 1352.07 L1930.67 1352.07 L1930.67 1317.51 Z" fill="#000000" fill-rule="nonzero" fill-opacity="1" /><path clip-path="url(#clip010)" d="M1970.53 1320.18 L1970.53 1325.11 Q1968.17 1322.91 1965.49 1321.82 Q1962.82 1320.73 1959.82 1320.73 Q1953.89 1320.73 1950.74 1324.37 Q1947.59 1327.98 1947.59 1334.83 Q1947.59 1341.66 1950.74 1345.29 Q1953.89 1348.9 1959.82 1348.9 Q1962.82 1348.9 1965.49 1347.82 Q1968.17 1346.73 1970.53 1344.53 L1970.53 1349.41 Q1968.08 1351.08 1965.32 1351.91 Q1962.59 1352.75 1959.54 1352.75 Q1951.69 1352.75 1947.18 1347.95 Q1942.66 1343.14 1942.66 1334.83 Q1942.66 1326.5 1947.18 1321.7 Q1951.69 1316.89 1959.54 1316.89 Q1962.64 1316.89 1965.37 1317.72 Q1968.13 1318.53 1970.53 1320.18 Z" fill="#000000" fill-rule="nonzero" fill-opacity="1" /><path clip-path="url(#clip010)" d="M1989.31 1322.12 L1982.96 1339.32 L1995.67 1339.32 L1989.31 1322.12 M1986.67 1317.51 L1991.97 1317.51 L2005.14 1352.07 L2000.28 1352.07 L1997.13 1343.21 L1981.55 1343.21 L1978.4 1352.07 L1973.47 1352.07 L1986.67 1317.51 Z" fill="#000000" fill-rule="nonzero" fill-opacity="1" /><path clip-path="url(#clip010)" d="M2025.25 1317.51 L2045.12 1317.51 L2045.12 1321.45 L2029.93 1321.45 L2029.93 1331.63 L2043.63 1331.63 L2043.63 1335.57 L2029.93 1335.57 L2029.93 1352.07 L2025.25 1352.07 L2025.25 1317.51 Z" fill="#000000" fill-rule="nonzero" fill-opacity="1" /><path clip-path="url(#clip010)" d="M2060.69 1329.13 Q2057.27 1329.13 2055.28 1331.82 Q2053.29 1334.48 2053.29 1339.13 Q2053.29 1343.79 2055.25 1346.47 Q2057.25 1349.13 2060.69 1349.13 Q2064.1 1349.13 2066.09 1346.45 Q2068.08 1343.76 2068.08 1339.13 Q2068.08 1334.53 2066.09 1331.84 Q2064.1 1329.13 2060.69 1329.13 M2060.69 1325.52 Q2066.25 1325.52 2069.42 1329.13 Q2072.59 1332.75 2072.59 1339.13 Q2072.59 1345.5 2069.42 1349.13 Q2066.25 1352.75 2060.69 1352.75 Q2055.12 1352.75 2051.94 1349.13 Q2048.8 1345.5 2048.8 1339.13 Q2048.8 1332.75 2051.94 1329.13 Q2055.12 1325.52 2060.69 1325.52 Z" fill="#000000" fill-rule="nonzero" fill-opacity="1" /><path clip-path="url(#clip010)" d="M2094.68 1330.13 Q2093.96 1329.71 2093.1 1329.53 Q2092.27 1329.32 2091.25 1329.32 Q2087.64 1329.32 2085.69 1331.68 Q2083.77 1334.02 2083.77 1338.42 L2083.77 1352.07 L2079.49 1352.07 L2079.49 1326.15 L2083.77 1326.15 L2083.77 1330.18 Q2085.12 1327.82 2087.27 1326.68 Q2089.42 1325.52 2092.5 1325.52 Q2092.94 1325.52 2093.47 1325.59 Q2094 1325.64 2094.65 1325.76 L2094.68 1330.13 Z" fill="#000000" fill-rule="nonzero" fill-opacity="1" /><path clip-path="url(#clip010)" d="M2103.36 1318.79 L2103.36 1326.15 L2112.13 1326.15 L2112.13 1329.46 L2103.36 1329.46 L2103.36 1343.53 Q2103.36 1346.7 2104.21 1347.61 Q2105.09 1348.51 2107.75 1348.51 L2112.13 1348.51 L2112.13 1352.07 L2107.75 1352.07 Q2102.82 1352.07 2100.95 1350.25 Q2099.07 1348.39 2099.07 1343.53 L2099.07 1329.46 L2095.95 1329.46 L2095.95 1326.15 L2099.07 1326.15 L2099.07 1318.79 L2103.36 1318.79 Z" fill="#000000" fill-rule="nonzero" fill-opacity="1" /><path clip-path="url(#clip010)" d="M2132.75 1330.13 Q2132.04 1329.71 2131.18 1329.53 Q2130.35 1329.32 2129.33 1329.32 Q2125.72 1329.32 2123.77 1331.68 Q2121.85 1334.02 2121.85 1338.42 L2121.85 1352.07 L2117.57 1352.07 L2117.57 1326.15 L2121.85 1326.15 L2121.85 1330.18 Q2123.19 1327.82 2125.35 1326.68 Q2127.5 1325.52 2130.58 1325.52 Q2131.02 1325.52 2131.55 1325.59 Q2132.08 1325.64 2132.73 1325.76 L2132.75 1330.13 Z" fill="#000000" fill-rule="nonzero" fill-opacity="1" /><path clip-path="url(#clip010)" d="M2149 1339.04 Q2143.84 1339.04 2141.85 1340.22 Q2139.86 1341.4 2139.86 1344.25 Q2139.86 1346.52 2141.34 1347.86 Q2142.85 1349.18 2145.42 1349.18 Q2148.96 1349.18 2151.09 1346.68 Q2153.24 1344.16 2153.24 1339.99 L2153.24 1339.04 L2149 1339.04 M2157.5 1337.28 L2157.5 1352.07 L2153.24 1352.07 L2153.24 1348.14 Q2151.78 1350.5 2149.61 1351.63 Q2147.43 1352.75 2144.28 1352.75 Q2140.3 1352.75 2137.94 1350.52 Q2135.6 1348.28 2135.6 1344.53 Q2135.6 1340.15 2138.52 1337.93 Q2141.46 1335.71 2147.27 1335.71 L2153.24 1335.71 L2153.24 1335.29 Q2153.24 1332.35 2151.3 1330.76 Q2149.37 1329.13 2145.88 1329.13 Q2143.66 1329.13 2141.55 1329.67 Q2139.44 1330.2 2137.5 1331.26 L2137.5 1327.33 Q2139.84 1326.43 2142.04 1325.99 Q2144.24 1325.52 2146.32 1325.52 Q2151.94 1325.52 2154.72 1328.44 Q2157.5 1331.36 2157.5 1337.28 Z" fill="#000000" fill-rule="nonzero" fill-opacity="1" /><path clip-path="url(#clip010)" d="M2187.82 1336.43 L2187.82 1352.07 L2183.56 1352.07 L2183.56 1336.57 Q2183.56 1332.88 2182.13 1331.06 Q2180.69 1329.23 2177.82 1329.23 Q2174.37 1329.23 2172.38 1331.43 Q2170.39 1333.63 2170.39 1337.42 L2170.39 1352.07 L2166.11 1352.07 L2166.11 1326.15 L2170.39 1326.15 L2170.39 1330.18 Q2171.92 1327.84 2173.98 1326.68 Q2176.06 1325.52 2178.77 1325.52 Q2183.24 1325.52 2185.53 1328.3 Q2187.82 1331.06 2187.82 1336.43 Z" fill="#000000" fill-rule="nonzero" fill-opacity="1" /><path clip-path="url(#clip010)" d="M2211.57 1317.51 L2216.25 1317.51 L2216.25 1348.14 L2233.08 1348.14 L2233.08 1352.07 L2211.57 1352.07 L2211.57 1317.51 Z" fill="#000000" fill-rule="nonzero" fill-opacity="1" /><path clip-path="url(#clip010)" d="M2237.98 1317.51 L2242.66 1317.51 L2242.66 1348.14 L2259.49 1348.14 L2259.49 1352.07 L2237.98 1352.07 L2237.98 1317.51 Z" fill="#000000" fill-rule="nonzero" fill-opacity="1" /><polyline clip-path="url(#clip010)" style="stroke:#e26f46; stroke-linecap:round; stroke-linejoin:round; stroke-width:4; stroke-opacity:1; fill:none" points="1689.84,1386.63 1829.74,1386.63 "/>
<circle clip-path="url(#clip010)" cx="1759.79" cy="1386.63" r="19.4305" fill="#e26f46" fill-rule="evenodd" fill-opacity="1" stroke="#000000" stroke-opacity="1" stroke-width="4.55111"/>
<path clip-path="url(#clip010)" d="M1868.89 1373.96 L1862.55 1391.16 L1875.26 1391.16 L1868.89 1373.96 M1866.25 1369.35 L1871.55 1369.35 L1884.72 1403.91 L1879.86 1403.91 L1876.71 1395.05 L1861.14 1395.05 L1857.99 1403.91 L1853.06 1403.91 L1866.25 1369.35 Z" fill="#000000" fill-rule="nonzero" fill-opacity="1" /><path clip-path="url(#clip010)" d="M1889.77 1369.35 L1896.74 1369.35 L1905.56 1392.87 L1914.42 1369.35 L1921.39 1369.35 L1921.39 1403.91 L1916.83 1403.91 L1916.83 1373.57 L1907.92 1397.27 L1903.22 1397.27 L1894.31 1373.57 L1894.31 1403.91 L1889.77 1403.91 L1889.77 1369.35 Z" fill="#000000" fill-rule="nonzero" fill-opacity="1" /><path clip-path="url(#clip010)" d="M1930.67 1369.35 L1935.35 1369.35 L1935.35 1403.91 L1930.67 1403.91 L1930.67 1369.35 Z" fill="#000000" fill-rule="nonzero" fill-opacity="1" /><path clip-path="url(#clip010)" d="M1970.53 1372.02 L1970.53 1376.95 Q1968.17 1374.75 1965.49 1373.66 Q1962.82 1372.57 1959.82 1372.57 Q1953.89 1372.57 1950.74 1376.21 Q1947.59 1379.82 1947.59 1386.67 Q1947.59 1393.5 1950.74 1397.13 Q1953.89 1400.74 1959.82 1400.74 Q1962.82 1400.74 1965.49 1399.66 Q1968.17 1398.57 1970.53 1396.37 L1970.53 1401.25 Q1968.08 1402.92 1965.32 1403.75 Q1962.59 1404.59 1959.54 1404.59 Q1951.69 1404.59 1947.18 1399.79 Q1942.66 1394.98 1942.66 1386.67 Q1942.66 1378.34 1947.18 1373.54 Q1951.69 1368.73 1959.54 1368.73 Q1962.64 1368.73 1965.37 1369.56 Q1968.13 1370.37 1970.53 1372.02 Z" fill="#000000" fill-rule="nonzero" fill-opacity="1" /><path clip-path="url(#clip010)" d="M1989.31 1373.96 L1982.96 1391.16 L1995.67 1391.16 L1989.31 1373.96 M1986.67 1369.35 L1991.97 1369.35 L2005.14 1403.91 L2000.28 1403.91 L1997.13 1395.05 L1981.55 1395.05 L1978.4 1403.91 L1973.47 1403.91 L1986.67 1369.35 Z" fill="#000000" fill-rule="nonzero" fill-opacity="1" /><path clip-path="url(#clip010)" d="M2009.77 1398.03 L2014.65 1398.03 L2014.65 1403.91 L2009.77 1403.91 L2009.77 1398.03 Z" fill="#000000" fill-rule="nonzero" fill-opacity="1" /><path clip-path="url(#clip010)" d="M2024.24 1377.99 L2028.5 1377.99 L2028.5 1404.38 Q2028.5 1409.33 2026.6 1411.55 Q2024.72 1413.78 2020.53 1413.78 L2018.91 1413.78 L2018.91 1410.16 L2020.05 1410.16 Q2022.48 1410.16 2023.36 1409.03 Q2024.24 1407.92 2024.24 1404.38 L2024.24 1377.99 M2024.24 1367.9 L2028.5 1367.9 L2028.5 1373.29 L2024.24 1373.29 L2024.24 1367.9 Z" fill="#000000" fill-rule="nonzero" fill-opacity="1" /><path clip-path="url(#clip010)" d="M2037.41 1367.9 L2041.67 1367.9 L2041.67 1403.91 L2037.41 1403.91 L2037.41 1367.9 Z" fill="#000000" fill-rule="nonzero" fill-opacity="1" /><path clip-path="url(#clip010)" d="M2065.83 1369.35 L2070.51 1369.35 L2070.51 1399.98 L2087.34 1399.98 L2087.34 1403.91 L2065.83 1403.91 L2065.83 1369.35 Z" fill="#000000" fill-rule="nonzero" fill-opacity="1" /><path clip-path="url(#clip010)" d="M2092.24 1369.35 L2096.92 1369.35 L2096.92 1399.98 L2113.75 1399.98 L2113.75 1403.91 L2092.24 1403.91 L2092.24 1369.35 Z" fill="#000000" fill-rule="nonzero" fill-opacity="1" /></svg>
